<svg width="28" height="28" viewBox="0 0 28 28" fill="none" xmlns="http://www.w3.org/2000/svg">
<path d="M15.668 11.5117C15.0363 11.5117 14.5469 12.0012 14.5469 12.6055C14.5469 13.2098 15.0363 13.6992 15.668 13.6992C16.2449 13.6992 16.7344 13.2098 16.7344 12.6055C16.7344 12.0012 16.2449 11.5117 15.668 11.5117ZM8.01172 11.5117C7.38008 11.5117 6.89062 12.0012 6.89062 12.6055C6.89062 13.2098 7.38008 13.6992 8.01172 13.6992C8.58867 13.6992 9.07812 13.2098 9.07812 12.6055C9.07812 12.0012 8.58867 11.5117 8.01172 11.5117Z" fill="#7681AB"/>
<path d="M24.4453 9.4336C23.1301 7.62891 21.2926 6.42305 19.2773 5.87891V5.88164C18.8098 5.36211 18.282 4.8836 17.6914 4.45703C13.2152 1.20313 6.93164 2.19571 3.66406 6.67188C1.03086 10.3086 1.14297 15.2004 3.82813 18.6758L3.85 22.3016C3.85 22.3891 3.86367 22.4766 3.89102 22.5586C4.03594 23.0207 4.52813 23.275 4.9875 23.1301L8.44922 22.0391C9.36524 22.3645 10.3113 22.5504 11.252 22.6023L11.2383 22.6133C13.6746 24.3879 16.8684 24.9211 19.7969 23.9531L23.2723 25.0852C23.3598 25.1125 23.45 25.1289 23.543 25.1289C24.027 25.1289 24.418 24.7379 24.418 24.2539V20.5898C26.827 17.3195 26.8898 12.7996 24.4453 9.4336ZM8.83203 20.0977L8.50391 19.9609L5.79688 20.8086L5.76953 17.9648L5.55078 17.7188C3.2375 14.8969 3.08438 10.8309 5.25 7.84766C7.88594 4.23282 12.9391 3.43438 16.543 6.04297C20.1578 8.67071 20.959 13.7156 18.3477 17.3086C16.1574 20.3137 12.2363 21.4238 8.83203 20.0977ZM22.6406 19.6328L22.4219 19.9063L22.4492 22.75L19.7695 21.8477L19.4414 21.9844C17.9102 22.5531 16.2777 22.5996 14.7656 22.1758L14.7602 22.1731C16.7809 21.5523 18.6129 20.2945 19.9336 18.4844C22.0227 15.6051 22.3617 11.9875 21.1477 8.90313L21.1641 8.91407C21.793 9.36524 22.3699 9.92852 22.8594 10.6094C24.8445 13.3328 24.7324 17.0406 22.6406 19.6328Z" fill="#7681AB"/>
<path d="M11.8398 11.5117C11.2082 11.5117 10.7188 12.0012 10.7188 12.6055C10.7188 13.2098 11.2082 13.6992 11.8398 13.6992C12.4168 13.6992 12.9062 13.2098 12.9062 12.6055C12.9062 12.0012 12.4168 11.5117 11.8398 11.5117Z" fill="#7681AB"/>
</svg>
