<svg width="18" height="17" viewBox="0 0 18 17" fill="none" xmlns="http://www.w3.org/2000/svg">
<path d="M3.37508 13C2.65679 13 1.96791 12.7147 1.46 12.2067C0.952089 11.6988 0.666748 11.01 0.666748 10.2917V3.20833C0.666748 2.49004 0.952089 1.80116 1.46 1.29325C1.96791 0.785341 2.65679 0.5 3.37508 0.5H14.6251C14.9807 0.5 15.3329 0.570053 15.6615 0.70616C15.9901 0.842266 16.2887 1.04176 16.5402 1.29325C16.7917 1.54474 16.9911 1.84331 17.1273 2.1719C17.2634 2.50049 17.3334 2.85267 17.3334 3.20833V10.2917C17.3334 10.6473 17.2634 10.9995 17.1273 11.3281C16.9911 11.6567 16.7917 11.9553 16.5402 12.2067C16.2887 12.4582 15.9901 12.6577 15.6615 12.7938C15.3329 12.9299 14.9807 13 14.6251 13H9.84341L5.66675 16.125C5.51199 16.2408 5.32804 16.3113 5.13551 16.3286C4.94297 16.3458 4.74943 16.3091 4.57655 16.2226C4.40366 16.1362 4.25826 16.0033 4.1566 15.8389C4.05493 15.6744 4.00103 15.485 4.00091 15.2917V13H3.37591H3.37508ZM9.42841 11.75H14.6251C15.0119 11.75 15.3828 11.5964 15.6563 11.3229C15.9298 11.0494 16.0834 10.6784 16.0834 10.2917V3.20833C16.0834 2.82156 15.9298 2.45063 15.6563 2.17714C15.3828 1.90365 15.0119 1.75 14.6251 1.75H3.37508C2.98831 1.75 2.61737 1.90365 2.34388 2.17714C2.07039 2.45063 1.91675 2.82156 1.91675 3.20833V10.2917C1.91675 11.0967 2.57008 11.75 3.37508 11.75H5.24925V14.875L9.42841 11.75Z" fill="#7681AB"/>
</svg>
