<svg width="24" height="24" viewBox="0 0 24 24" fill="none" xmlns="http://www.w3.org/2000/svg">
<path d="M1.50038 9.678C0.670168 9.678 0 10.348 0 11.178V12.808C-2.93601e-09 13.005 0.0388083 13.2 0.114209 13.382C0.18961 13.564 0.300127 13.7294 0.43945 13.8687C0.578772 14.0079 0.744173 14.1184 0.926206 14.1938C1.10824 14.2692 1.30334 14.308 1.50038 14.308C1.69741 14.308 1.89251 14.2692 2.07454 14.1938C2.25658 14.1184 2.42198 14.0079 2.5613 13.8687C2.70062 13.7294 2.81114 13.564 2.88654 13.382C2.96194 13.2 3.00075 13.005 3.00075 12.808V11.178C3.00075 10.348 2.33058 9.678 1.50038 9.678ZM22.4996 9.678C21.6694 9.678 20.9993 10.348 20.9993 11.178V12.808C20.9993 13.2058 21.1573 13.5874 21.4387 13.8687C21.7201 14.15 22.1017 14.308 22.4996 14.308C22.8975 14.308 23.2792 14.15 23.5606 13.8687C23.8419 13.5874 24 13.2058 24 12.808V11.178C24 10.348 23.3298 9.678 22.4996 9.678ZM6.67867 14.587C5.84846 14.587 5.17829 15.257 5.17829 16.087V17.717C5.17829 18.1148 5.33637 18.4964 5.61774 18.7777C5.89912 19.059 6.28075 19.217 6.67867 19.217C7.07659 19.217 7.45822 19.059 7.7396 18.7777C8.02097 18.4964 8.17904 18.1148 8.17904 17.717V16.097C8.17904 15.267 7.50888 14.597 6.67867 14.597V14.587ZM6.67867 4.77C5.84846 4.77 5.17829 5.44 5.17829 6.27V11.627C5.17829 12.0248 5.33637 12.4064 5.61774 12.6877C5.89912 12.969 6.28075 13.127 6.67867 13.127C7.07659 13.127 7.45822 12.969 7.7396 12.6877C8.02097 12.4064 8.17904 12.0248 8.17904 11.627V6.258C8.17904 5.428 7.50888 4.758 6.67867 4.758V4.77ZM17.3193 4.77C16.4891 4.77 15.819 5.44 15.819 6.27V7.91C15.819 8.30782 15.977 8.68936 16.2584 8.97066C16.5398 9.25196 16.9214 9.41 17.3193 9.41C17.7173 9.41 18.0989 9.25196 18.3803 8.97066C18.6616 8.68936 18.8197 8.30782 18.8197 7.91V6.27C18.8197 5.44 18.1495 4.77 17.3193 4.77ZM12 0C11.1698 0 10.4996 0.67 10.4996 1.5V3.13C10.4996 3.52782 10.6577 3.90936 10.9391 4.19066C11.2204 4.47196 11.6021 4.63 12 4.63C12.3979 4.63 12.7796 4.47196 13.0609 4.19066C13.3423 3.90936 13.5004 3.52782 13.5004 3.13V1.5C13.5004 0.67 12.8302 0.001 12 0.001V0ZM12 19.355C11.1698 19.355 10.4996 20.025 10.4996 20.855V22.495C10.499 22.692 10.5371 22.8872 10.6119 23.0694C10.6867 23.2516 10.7967 23.4174 10.9355 23.5571C11.0744 23.6969 11.2394 23.8079 11.4212 23.8839C11.603 23.9599 11.798 23.9993 11.995 24C12.192 24.0007 12.3873 23.9625 12.5695 23.8877C12.7518 23.813 12.9176 23.703 13.0574 23.5642C13.1972 23.4254 13.3082 23.2604 13.3843 23.0786C13.4603 22.8969 13.4997 22.702 13.5004 22.505V20.865C13.5004 20.045 12.8302 19.365 12 19.365V19.355ZM17.3203 10.898C16.4901 10.898 15.82 11.578 15.82 12.398V17.726C15.82 18.1238 15.978 18.5054 16.2594 18.7867C16.5408 19.068 16.9224 19.226 17.3203 19.226C17.7183 19.226 18.0999 19.068 18.3813 18.7867C18.6626 18.5054 18.8207 18.1238 18.8207 17.726V12.397C18.8207 11.567 18.1505 10.897 17.3203 10.897V10.898ZM12 6.128C11.1698 6.128 10.4996 6.808 10.4996 7.628V16.356C10.4996 16.7538 10.6577 17.1354 10.9391 17.4167C11.2204 17.698 11.6021 17.856 12 17.856C12.3979 17.856 12.7796 17.698 13.0609 17.4167C13.3423 17.1354 13.5004 16.7538 13.5004 16.356V7.638C13.5004 6.808 12.8302 6.138 12 6.138V6.128Z" fill="#7681AB"/>
</svg>
