<svg width="21" height="20" viewBox="0 0 21 20" fill="none" xmlns="http://www.w3.org/2000/svg">
<path d="M2.61328 2.5V1.9H2.01328V2.5H2.61328ZM10.5224 11.2576C10.7567 11.4919 11.1366 11.4919 11.3709 11.2576C11.6052 11.0233 11.6052 10.6434 11.3709 10.4091L10.5224 11.2576ZM3.21328 9.16667V2.5H2.01328V9.16667H3.21328ZM2.61328 3.1H9.27995V1.9H2.61328V3.1ZM2.18902 2.92426L10.5224 11.2576L11.3709 10.4091L3.03755 2.07574L2.18902 2.92426Z" fill="#7681AB"/>
<path d="M3.44653 12.5V12.5C3.44653 13.5856 3.44653 14.1285 3.58538 14.5688C3.87971 15.5023 4.61092 16.2335 5.54442 16.5279C5.98479 16.6667 6.52759 16.6667 7.6132 16.6667H10.7799C13.6083 16.6667 15.0225 16.6667 15.9012 15.788C16.7799 14.9093 16.7799 13.4951 16.7799 10.6667V7.50004C16.7799 6.41443 16.7799 5.87163 16.641 5.43126C16.3467 4.49776 15.6155 3.76655 14.682 3.47222C14.2416 3.33337 13.6988 3.33337 12.6132 3.33337V3.33337" stroke="#7681AB" stroke-width="1.2" stroke-linecap="round"/>
</svg>
