<svg width="28" height="28" viewBox="0 0 28 28" fill="none" xmlns="http://www.w3.org/2000/svg">
<path d="M5.83337 14.8862C5.83337 13.3021 5.83337 12.5101 6.15358 11.8139C6.47378 11.1177 7.07513 10.6023 8.27783 9.5714L9.4445 8.5714C11.6184 6.70809 12.7053 5.77643 14 5.77643C15.2948 5.77643 16.3817 6.70809 18.5556 8.5714L19.7222 9.5714C20.9249 10.6023 21.5263 11.1177 21.8465 11.8139C22.1667 12.5101 22.1667 13.3022 22.1667 14.8862V19.8333C22.1667 22.0332 22.1667 23.1332 21.4833 23.8166C20.7999 24.5 19.6999 24.5 17.5 24.5H10.5C8.30015 24.5 7.20021 24.5 6.51679 23.8166C5.83337 23.1332 5.83337 22.0332 5.83337 19.8333V14.8862Z" stroke="#7681AB" stroke-width="2"/>
<path d="M16.9167 24.5V18.5C16.9167 17.9477 16.469 17.5 15.9167 17.5H12.0834C11.5311 17.5 11.0834 17.9477 11.0834 18.5V24.5" stroke="#7681AB" stroke-width="2" stroke-linecap="round" stroke-linejoin="round"/>
</svg>
