<svg width="1512" height="46" viewBox="0 0 1512 46" fill="none" xmlns="http://www.w3.org/2000/svg">
<path d="M1419.73 11.5544H1414.55L1415.42 6.32031C1415.68 4.76629 1414.63 3.29782 1413.07 3.03852C1411.51 2.78234 1410.05 3.83077 1409.79 5.38202L1408.77 11.5544H1400.29L1401.16 6.32031C1401.42 4.76629 1400.37 3.29782 1398.82 3.03852C1397.26 2.78234 1395.8 3.83077 1395.54 5.38202L1394.51 11.5544H1388.37C1386.79 11.5544 1385.52 12.8313 1385.52 14.4058C1385.52 16.0632 1386.79 17.2572 1388.37 17.2572H1393.56L1391.66 28.6628H1385.52C1383.94 28.6628 1382.67 29.9397 1382.67 31.5142C1382.67 33.0887 1383.94 34.2854 1385.52 34.2854H1390.71L1389.83 39.5195C1389.57 41.0735 1390.62 42.542 1392.18 42.8013C1392.33 42.9911 1392.49 43 1392.65 43C1394.01 43 1395.22 42.0118 1395.46 40.6182L1396.48 34.4458H1404.96L1404.09 39.6799C1403.83 41.2339 1404.88 42.7024 1406.43 42.9617C1406.59 42.9911 1406.75 43 1406.9 43C1408.27 43 1409.48 42.0118 1409.71 40.6182L1410.74 34.4458H1416.88C1418.46 34.4458 1419.73 33.1689 1419.73 31.6746C1419.73 30.1001 1418.46 28.8232 1416.88 28.8232H1411.69L1413.59 17.4176H1419.73C1421.31 17.4176 1422.59 16.1416 1422.59 14.6464C1422.59 12.9088 1421.31 11.5544 1419.73 11.5544ZM1405.91 28.6628H1397.44L1399.34 17.2572H1407.81L1405.91 28.6628Z" fill="#571EAE" fill-opacity="0.3"/>
<path d="M350.068 11.5544H344.88L345.752 6.32031C346.011 4.76629 344.961 3.29782 343.408 3.03852C341.846 2.78234 340.386 3.83077 340.127 5.38202L339.099 11.5544H330.625L331.497 6.32031C331.756 4.76629 330.707 3.29782 329.154 3.03852C327.592 2.78234 326.131 3.83077 325.872 5.38202L324.842 11.5544H318.703C317.128 11.5544 315.851 12.8313 315.851 14.4058C315.851 16.0632 317.128 17.2572 318.703 17.2572H323.891L321.991 28.6628H315.851C314.277 28.6628 313 29.9397 313 31.5142C313 33.0887 314.277 34.2854 315.851 34.2854H321.04L320.168 39.5195C319.909 41.0735 320.959 42.542 322.511 42.8013C322.668 42.9911 322.828 43 322.98 43C324.349 43 325.557 42.0118 325.789 40.6182L326.818 34.4458H335.293L334.421 39.6799C334.162 41.2339 335.212 42.7024 336.765 42.9617C336.925 42.9911 337.085 43 337.237 43C338.606 43 339.814 42.0118 340.046 40.6182L341.075 34.4458H347.217C348.791 34.4458 350.068 33.1689 350.068 31.6746C350.068 30.1001 348.791 28.8232 347.217 28.8232H342.028L343.929 17.4176H350.068C351.643 17.4176 352.92 16.1416 352.92 14.6464C352.92 12.9088 351.645 11.5544 350.068 11.5544ZM336.248 28.6628H327.774L329.672 17.2572H338.148L336.248 28.6628Z" fill="#571EAE" fill-opacity="0.3"/>
<path d="M21.6475 18.8851C20.5289 18.8851 19.6621 19.7519 19.6621 20.822C19.6621 21.8922 20.5289 22.759 21.6475 22.759C22.6692 22.759 23.536 21.8922 23.536 20.822C23.536 19.7519 22.6692 18.8851 21.6475 18.8851ZM8.08888 18.8851C6.9703 18.8851 6.10352 19.7519 6.10352 20.822C6.10352 21.8922 6.9703 22.759 8.08888 22.759C9.11062 22.759 9.9774 21.8922 9.9774 20.822C9.9774 19.7519 9.11062 18.8851 8.08888 18.8851Z" fill="#571EAE" fill-opacity="0.3"/>
<path d="M37.1909 15.2049C34.8617 12.0089 31.6077 9.87346 28.0388 8.90984V8.91468C27.2108 7.99463 26.2762 7.14722 25.2303 6.39181C17.3033 0.629413 6.17561 2.38719 0.389001 10.3141C-4.27419 16.7544 -4.07565 25.4174 0.679542 31.572L0.718281 37.993C0.718281 38.148 0.742493 38.3029 0.790917 38.4482C1.04756 39.2665 1.91918 39.7169 2.7327 39.4602L8.86312 37.5281C10.4853 38.1044 12.1608 38.4337 13.8265 38.5257L13.8023 38.545C18.1169 41.6877 23.7727 42.632 28.9589 40.9178L35.1135 42.9225C35.2685 42.9709 35.4283 43 35.5929 43C36.45 43 37.1425 42.3075 37.1425 41.4504V34.9617C41.4086 29.1702 41.5199 21.1658 37.1909 15.2049ZM9.54105 34.0901L8.95997 33.848L4.16604 35.3491L4.11761 30.313L3.73022 29.8772C-0.366406 24.8799 -0.637578 17.6793 3.19757 12.3963C7.86559 5.99474 16.8143 4.58077 23.1965 9.20038C29.5981 13.8539 31.0169 22.788 26.3924 29.1509C22.5137 34.4726 15.5698 36.4386 9.54105 34.0901ZM33.9949 33.2669L33.6075 33.7511L33.656 38.7872L28.9105 37.1892L28.3294 37.4313C25.6177 38.4385 22.7268 38.5208 20.049 37.7703L20.0393 37.7654C23.6178 36.6662 26.8621 34.4387 29.201 31.2331C32.9006 26.1341 33.501 19.7277 31.351 14.2655L31.3801 14.2848C32.4938 15.0838 33.5155 16.0814 34.3823 17.2871C37.8979 22.1101 37.6993 28.6763 33.9949 33.2669Z" fill="#571EAE" fill-opacity="0.3"/>
<path d="M14.8672 18.8851C13.7486 18.8851 12.8818 19.7519 12.8818 20.822C12.8818 21.8922 13.7486 22.759 14.8672 22.759C15.8889 22.759 16.7557 21.8922 16.7557 20.822C16.7557 19.7519 15.8889 18.8851 14.8672 18.8851Z" fill="#571EAE" fill-opacity="0.3"/>
<path d="M496.98 18.8851C495.862 18.8851 494.995 19.7519 494.995 20.822C494.995 21.8922 495.862 22.759 496.98 22.759C498.002 22.759 498.869 21.8922 498.869 20.822C498.869 19.7519 498.002 18.8851 496.98 18.8851ZM483.422 18.8851C482.303 18.8851 481.437 19.7519 481.437 20.822C481.437 21.8922 482.303 22.759 483.422 22.759C484.444 22.759 485.31 21.8922 485.31 20.822C485.31 19.7519 484.444 18.8851 483.422 18.8851Z" fill="#571EAE" fill-opacity="0.3"/>
<path d="M512.524 15.2049C510.195 12.0089 506.941 9.87346 503.372 8.90984V8.91468C502.544 7.99463 501.609 7.14722 500.563 6.39181C492.636 0.629413 481.509 2.38719 475.722 10.3141C471.059 16.7544 471.257 25.4174 476.013 31.572L476.051 37.993C476.051 38.148 476.076 38.3029 476.124 38.4482C476.381 39.2665 477.252 39.7169 478.066 39.4602L484.196 37.5281C485.818 38.1044 487.494 38.4337 489.16 38.5257L489.135 38.545C493.45 41.6877 499.106 42.632 504.292 40.9178L510.447 42.9225C510.601 42.9709 510.761 43 510.926 43C511.783 43 512.475 42.3075 512.475 41.4504V34.9617C516.742 29.1702 516.853 21.1658 512.524 15.2049ZM484.874 34.0901L484.293 33.848L479.499 35.3491L479.451 30.313L479.063 29.8772C474.967 24.8799 474.695 17.6793 478.531 12.3963C483.199 5.99474 492.147 4.58077 498.529 9.20038C504.931 13.8539 506.35 22.788 501.725 29.1509C497.847 34.4726 490.903 36.4386 484.874 34.0901ZM509.328 33.2669L508.941 33.7511L508.989 38.7872L504.243 37.1892L503.662 37.4313C500.951 38.4385 498.06 38.5208 495.382 37.7703L495.372 37.7654C498.951 36.6662 502.195 34.4387 504.534 31.2331C508.234 26.1341 508.834 19.7277 506.684 14.2655L506.713 14.2848C507.827 15.0838 508.849 16.0814 509.715 17.2871C513.231 22.1101 513.032 28.6763 509.328 33.2669Z" fill="#571EAE" fill-opacity="0.3"/>
<path d="M490.2 18.8851C489.082 18.8851 488.215 19.7519 488.215 20.822C488.215 21.8922 489.082 22.759 490.2 22.759C491.222 22.759 492.089 21.8922 492.089 20.822C492.089 19.7519 491.222 18.8851 490.2 18.8851Z" fill="#571EAE" fill-opacity="0.3"/>
<path d="M1332.67 9.33333C1332.23 9.33333 1331.8 9.15774 1331.49 8.84518C1331.18 8.53262 1331 8.10869 1331 7.66667C1331 7.22464 1331.18 6.80072 1331.49 6.48816C1331.8 6.17559 1332.23 6 1332.67 6H1339.33C1339.78 6 1340.2 6.17559 1340.51 6.48816C1340.83 6.80072 1341 7.22464 1341 7.66667V14.3333C1341 14.7754 1340.83 15.1993 1340.51 15.5118C1340.2 15.8244 1339.78 16 1339.33 16C1338.89 16 1338.47 15.8244 1338.16 15.5118C1337.84 15.1993 1337.67 14.7754 1337.67 14.3333V11.69L1328.01 21.345C1327.7 21.6575 1327.28 21.833 1326.83 21.833C1326.39 21.833 1325.97 21.6575 1325.66 21.345L1321 16.69L1312.18 25.5117C1311.86 25.8153 1311.44 25.9833 1311.01 25.9795C1310.57 25.9757 1310.15 25.8004 1309.84 25.4914C1309.53 25.1824 1309.36 24.7643 1309.35 24.3273C1309.35 23.8903 1309.52 23.4693 1309.82 23.155L1319.82 13.155C1320.13 12.8425 1320.56 12.667 1321 12.667C1321.44 12.667 1321.87 12.8425 1322.18 13.155L1326.83 17.81L1335.31 9.33333H1332.67ZM1312.67 32.6667V37.6667C1312.67 38.1087 1312.49 38.5326 1312.18 38.8452C1311.87 39.1577 1311.44 39.3333 1311 39.3333C1310.56 39.3333 1310.13 39.1577 1309.82 38.8452C1309.51 38.5326 1309.33 38.1087 1309.33 37.6667V32.6667C1309.33 32.2246 1309.51 31.8007 1309.82 31.4882C1310.13 31.1756 1310.56 31 1311 31C1311.44 31 1311.87 31.1756 1312.18 31.4882C1312.49 31.8007 1312.67 32.2246 1312.67 32.6667ZM1321 26C1321 25.558 1320.83 25.1341 1320.51 24.8215C1320.2 24.5089 1319.78 24.3333 1319.33 24.3333C1318.89 24.3333 1318.47 24.5089 1318.16 24.8215C1317.84 25.1341 1317.67 25.558 1317.67 26V37.6667C1317.67 38.1087 1317.84 38.5326 1318.16 38.8452C1318.47 39.1577 1318.89 39.3333 1319.33 39.3333C1319.78 39.3333 1320.2 39.1577 1320.51 38.8452C1320.83 38.5326 1321 38.1087 1321 37.6667V26ZM1327.67 27.6667C1328.11 27.6667 1328.53 27.8423 1328.85 28.1548C1329.16 28.4674 1329.33 28.8913 1329.33 29.3333V37.6667C1329.33 38.1087 1329.16 38.5326 1328.85 38.8452C1328.53 39.1577 1328.11 39.3333 1327.67 39.3333C1327.23 39.3333 1326.8 39.1577 1326.49 38.8452C1326.18 38.5326 1326 38.1087 1326 37.6667V29.3333C1326 28.8913 1326.18 28.4674 1326.49 28.1548C1326.8 27.8423 1327.23 27.6667 1327.67 27.6667ZM1337.67 21C1337.67 20.558 1337.49 20.1341 1337.18 19.8215C1336.87 19.5089 1336.44 19.3333 1336 19.3333C1335.56 19.3333 1335.13 19.5089 1334.82 19.8215C1334.51 20.1341 1334.33 20.558 1334.33 21V37.6667C1334.33 38.1087 1334.51 38.5326 1334.82 38.8452C1335.13 39.1577 1335.56 39.3333 1336 39.3333C1336.44 39.3333 1336.87 39.1577 1337.18 38.8452C1337.49 38.5326 1337.67 38.1087 1337.67 37.6667V21Z" fill="#571EAE" fill-opacity="0.3"/>
<path d="M262.999 9.33333C262.557 9.33333 262.133 9.15774 261.821 8.84518C261.508 8.53262 261.333 8.10869 261.333 7.66667C261.333 7.22464 261.508 6.80072 261.821 6.48816C262.133 6.17559 262.557 6 262.999 6H269.666C270.108 6 270.532 6.17559 270.845 6.48816C271.157 6.80072 271.333 7.22464 271.333 7.66667V14.3333C271.333 14.7754 271.157 15.1993 270.845 15.5118C270.532 15.8244 270.108 16 269.666 16C269.224 16 268.8 15.8244 268.488 15.5118C268.175 15.1993 267.999 14.7754 267.999 14.3333V11.69L258.344 21.345C258.032 21.6575 257.608 21.833 257.166 21.833C256.724 21.833 256.3 21.6575 255.988 21.345L251.333 16.69L242.511 25.5117C242.197 25.8153 241.776 25.9833 241.339 25.9795C240.902 25.9757 240.484 25.8004 240.175 25.4914C239.866 25.1824 239.69 24.7643 239.687 24.3273C239.683 23.8903 239.851 23.4693 240.154 23.155L250.154 13.155C250.467 12.8425 250.891 12.667 251.333 12.667C251.775 12.667 252.198 12.8425 252.511 13.155L257.166 17.81L265.643 9.33333H262.999ZM242.999 32.6667V37.6667C242.999 38.1087 242.824 38.5326 242.511 38.8452C242.199 39.1577 241.775 39.3333 241.333 39.3333C240.891 39.3333 240.467 39.1577 240.154 38.8452C239.842 38.5326 239.666 38.1087 239.666 37.6667V32.6667C239.666 32.2246 239.842 31.8007 240.154 31.4882C240.467 31.1756 240.891 31 241.333 31C241.775 31 242.199 31.1756 242.511 31.4882C242.824 31.8007 242.999 32.2246 242.999 32.6667ZM251.333 26C251.333 25.558 251.157 25.1341 250.845 24.8215C250.532 24.5089 250.108 24.3333 249.666 24.3333C249.224 24.3333 248.8 24.5089 248.488 24.8215C248.175 25.1341 247.999 25.558 247.999 26V37.6667C247.999 38.1087 248.175 38.5326 248.488 38.8452C248.8 39.1577 249.224 39.3333 249.666 39.3333C250.108 39.3333 250.532 39.1577 250.845 38.8452C251.157 38.5326 251.333 38.1087 251.333 37.6667V26ZM257.999 27.6667C258.441 27.6667 258.865 27.8423 259.178 28.1548C259.49 28.4674 259.666 28.8913 259.666 29.3333V37.6667C259.666 38.1087 259.49 38.5326 259.178 38.8452C258.865 39.1577 258.441 39.3333 257.999 39.3333C257.557 39.3333 257.133 39.1577 256.821 38.8452C256.508 38.5326 256.333 38.1087 256.333 37.6667V29.3333C256.333 28.8913 256.508 28.4674 256.821 28.1548C257.133 27.8423 257.557 27.6667 257.999 27.6667ZM267.999 21C267.999 20.558 267.824 20.1341 267.511 19.8215C267.199 19.5089 266.775 19.3333 266.333 19.3333C265.891 19.3333 265.467 19.5089 265.154 19.8215C264.842 20.1341 264.666 20.558 264.666 21V37.6667C264.666 38.1087 264.842 38.5326 265.154 38.8452C265.467 39.1577 265.891 39.3333 266.333 39.3333C266.775 39.3333 267.199 39.1577 267.511 38.8452C267.824 38.5326 267.999 38.1087 267.999 37.6667V21Z" fill="#571EAE" fill-opacity="0.3"/>
<path d="M1490.92 22.5219C1489.03 22.5237 1487.2 23.133 1485.69 24.2594L1480.42 18.9844C1481.56 17.4861 1482.17 15.6544 1482.17 13.7719C1482.17 11.8005 1481.51 9.88525 1480.29 8.33646C1479.07 6.78768 1477.36 5.69615 1475.45 5.23877C1473.53 4.78139 1471.51 4.98495 1469.73 5.81648C1467.94 6.648 1466.48 8.05876 1465.6 9.82011C1464.71 11.5815 1464.45 13.5902 1464.85 15.5208C1465.25 17.4514 1466.29 19.1907 1467.8 20.4568C1469.31 21.7229 1471.2 22.4417 1473.17 22.4966C1475.14 22.5515 1477.07 21.9394 1478.65 20.7594L1483.92 26.0344C1482.74 27.6132 1482.12 29.544 1482.18 31.5141C1482.23 33.4841 1482.95 35.3781 1484.22 36.8892C1485.48 38.4003 1487.22 39.44 1489.15 39.8399C1491.08 40.2398 1493.09 39.9764 1494.85 39.0925C1496.61 38.2086 1498.02 36.7559 1498.86 34.9697C1499.69 33.1835 1499.89 31.1685 1499.44 29.2509C1498.98 27.3334 1497.89 25.6256 1496.35 24.4044C1494.8 23.1831 1492.89 22.5198 1490.92 22.5219ZM1467.17 13.7719C1467.17 12.5358 1467.53 11.3274 1468.22 10.2996C1468.91 9.27176 1469.88 8.47069 1471.02 7.99764C1472.17 7.52459 1473.42 7.40082 1474.64 7.64198C1475.85 7.88313 1476.96 8.47839 1477.84 9.35247C1478.71 10.2265 1479.3 11.3402 1479.55 12.5526C1479.79 13.765 1479.66 15.0216 1479.19 16.1637C1478.72 17.3057 1477.92 18.2818 1476.89 18.9686C1475.86 19.6553 1474.65 20.0219 1473.42 20.0219C1471.76 20.0219 1470.17 19.3634 1469 18.1913C1467.82 17.0192 1467.17 15.4295 1467.17 13.7719Z" fill="#571EAE" fill-opacity="0.3"/>
<path d="M421.25 22.5219C419.367 22.5237 417.534 23.133 416.025 24.2594L410.75 18.9844C411.89 17.4861 412.505 15.6544 412.5 13.7719C412.505 11.8005 411.844 9.88525 410.624 8.33646C409.405 6.78768 407.698 5.69615 405.78 5.23877C403.863 4.78139 401.847 4.98495 400.059 5.81648C398.272 6.648 396.818 8.05876 395.932 9.82011C395.047 11.5815 394.782 13.5902 395.181 15.5208C395.58 17.4514 396.619 19.1907 398.13 20.4568C399.641 21.7229 401.536 22.4417 403.506 22.4966C405.477 22.5515 407.408 21.9394 408.987 20.7594L414.25 26.0344C413.07 27.6132 412.458 29.544 412.513 31.5141C412.567 33.4841 413.285 35.3781 414.551 36.8892C415.816 38.4003 417.554 39.44 419.484 39.8399C421.414 40.2398 423.422 39.9764 425.184 39.0925C426.945 38.2086 428.357 36.7559 429.19 34.9697C430.022 33.1835 430.228 31.1685 429.773 29.2509C429.318 27.3334 428.228 25.6256 426.681 24.4044C425.135 23.1831 423.221 22.5198 421.25 22.5219ZM397.5 13.7719C397.5 12.5358 397.867 11.3274 398.553 10.2996C399.24 9.27176 400.216 8.47069 401.358 7.99764C402.5 7.52459 403.757 7.40082 404.969 7.64198C406.182 7.88313 407.295 8.47839 408.169 9.35247C409.043 10.2265 409.639 11.3402 409.88 12.5526C410.121 13.765 409.997 15.0216 409.524 16.1637C409.051 17.3057 408.25 18.2818 407.222 18.9686C406.194 19.6553 404.986 20.0219 403.75 20.0219C402.092 20.0219 400.503 19.3634 399.331 18.1913C398.158 17.0192 397.5 15.4295 397.5 13.7719Z" fill="#571EAE" fill-opacity="0.3"/>
<path d="M1167 26H1163.67C1163.67 22.0218 1165.25 18.2064 1168.06 15.3934C1170.87 12.5804 1174.69 11 1178.67 11V14.3333C1172.22 14.3333 1167 19.55 1167 26ZM1178.67 21V17.6667C1174.07 17.6667 1170.33 21.4 1170.33 26H1173.67C1173.67 23.2333 1175.9 21 1178.67 21ZM1160.33 9.33333C1160.33 7.48333 1158.85 6 1157 6C1155.15 6 1153.67 7.48333 1153.67 9.33333C1153.67 11.1833 1155.15 12.6667 1157 12.6667C1158.85 12.6667 1160.33 11.1833 1160.33 9.33333ZM1167.75 10.1667H1164.42C1164.22 11.3309 1163.62 12.3887 1162.72 13.1518C1161.82 13.9148 1160.68 14.3335 1159.5 14.3333H1154.5C1153.12 14.3333 1152 15.45 1152 16.8333V21H1162V17.2333C1163.54 16.7463 1164.91 15.8174 1165.93 14.5615C1166.96 13.3056 1167.59 11.7776 1167.75 10.1667ZM1180.33 31C1182.18 31 1183.67 29.5167 1183.67 27.6667C1183.67 25.8167 1182.18 24.3333 1180.33 24.3333C1178.48 24.3333 1177 25.8167 1177 27.6667C1177 29.5167 1178.48 31 1180.33 31ZM1182.83 32.6667H1177.83C1176.65 32.6668 1175.51 32.2481 1174.61 31.4851C1173.71 30.7221 1173.11 29.6643 1172.92 28.5H1169.58C1169.75 30.111 1170.38 31.6389 1171.4 32.8948C1172.42 34.1508 1173.79 35.0797 1175.33 35.5667V39.3333H1185.33V35.1667C1185.33 33.7833 1184.22 32.6667 1182.83 32.6667Z" fill="#571EAE" fill-opacity="0.3"/>
<path d="M97.334 26H94.0007C94.0007 22.0218 95.581 18.2064 98.3941 15.3934C101.207 12.5804 105.022 11 109.001 11V14.3333C102.551 14.3333 97.334 19.55 97.334 26ZM109.001 21V17.6667C104.401 17.6667 100.667 21.4 100.667 26H104.001C104.001 23.2333 106.234 21 109.001 21ZM90.6673 9.33333C90.6673 7.48333 89.184 6 87.334 6C85.484 6 84.0007 7.48333 84.0007 9.33333C84.0007 11.1833 85.484 12.6667 87.334 12.6667C89.184 12.6667 90.6673 11.1833 90.6673 9.33333ZM98.084 10.1667H94.7507C94.5572 11.3309 93.9569 12.3887 93.0565 13.1518C92.1561 13.9148 91.0142 14.3335 89.834 14.3333H84.834C83.4507 14.3333 82.334 15.45 82.334 16.8333V21H92.334V17.2333C93.8782 16.7463 95.2458 15.8174 96.2678 14.5615C97.2897 13.3056 97.9211 11.7776 98.084 10.1667ZM110.667 31C112.517 31 114.001 29.5167 114.001 27.6667C114.001 25.8167 112.517 24.3333 110.667 24.3333C108.817 24.3333 107.334 25.8167 107.334 27.6667C107.334 29.5167 108.817 31 110.667 31ZM113.167 32.6667H108.167C106.987 32.6668 105.845 32.2481 104.945 31.4851C104.044 30.7221 103.444 29.6643 103.251 28.5H99.9173C100.08 30.111 100.712 31.6389 101.734 32.8948C102.755 34.1508 104.123 35.0797 105.667 35.5667V39.3333H115.667V35.1667C115.667 33.7833 114.551 32.6667 113.167 32.6667Z" fill="#571EAE" fill-opacity="0.3"/>
<path d="M1253.97 16.6994L1244.51 26.179L1240.81 22.4591C1240.43 22.0825 1239.92 21.871 1239.39 21.871C1238.86 21.871 1238.35 22.0825 1237.97 22.4591C1237.59 22.8357 1237.38 23.3465 1237.38 23.8791C1237.38 24.1428 1237.43 24.4039 1237.53 24.6475C1237.64 24.8912 1237.78 25.1125 1237.97 25.299L1243.09 30.4188C1243.28 30.6062 1243.5 30.755 1243.74 30.8566C1243.98 30.9581 1244.25 31.0104 1244.51 31.0104C1244.77 31.0104 1245.04 30.9581 1245.28 30.8566C1245.52 30.755 1245.74 30.6062 1245.93 30.4188L1256.81 19.5393C1257 19.3528 1257.14 19.1314 1257.24 18.8878C1257.35 18.6442 1257.4 18.383 1257.4 18.1193C1257.4 17.8556 1257.35 17.5945 1257.24 17.3509C1257.14 17.1072 1257 16.8859 1256.81 16.6994C1256.62 16.5129 1256.4 16.365 1256.16 16.2641C1255.91 16.1632 1255.65 16.1112 1255.39 16.1112C1255.13 16.1112 1254.86 16.1632 1254.62 16.2641C1254.38 16.365 1254.16 16.5129 1253.97 16.6994ZM1247.39 3C1244.76 3 1242.16 3.51729 1239.74 4.52234C1237.31 5.52739 1235.11 7.00052 1233.25 8.85761C1229.5 12.6082 1227.39 17.695 1227.39 22.9991C1227.37 27.6172 1228.97 32.0958 1231.91 35.6586L1227.91 39.6584C1227.63 39.9396 1227.44 40.2967 1227.37 40.6847C1227.3 41.0727 1227.34 41.4741 1227.49 41.8383C1227.66 42.1981 1227.93 42.5005 1228.26 42.707C1228.6 42.9135 1228.99 43.0149 1229.39 42.9982H1247.39C1252.69 42.9982 1257.78 40.8912 1261.53 37.1406C1265.28 33.3901 1267.39 28.3032 1267.39 22.9991C1267.39 17.695 1265.28 12.6082 1261.53 8.85761C1257.78 5.10704 1252.69 3 1247.39 3ZM1247.39 38.9984H1234.21L1236.07 37.1385C1236.44 36.7638 1236.65 36.2569 1236.65 35.7286C1236.65 35.2002 1236.44 34.6933 1236.07 34.3186C1233.45 31.7028 1231.82 28.26 1231.46 24.5766C1231.09 20.8933 1232.01 17.1974 1234.07 14.1186C1236.12 11.0397 1239.18 8.76846 1242.72 7.69174C1246.26 6.61502 1250.07 6.79944 1253.49 8.2136C1256.91 9.62775 1259.73 12.1841 1261.48 15.4472C1263.23 18.7103 1263.79 22.4782 1263.07 26.109C1262.35 29.7398 1260.4 33.0088 1257.54 35.3591C1254.68 37.7093 1251.09 38.9955 1247.39 38.9984Z" fill="#571EAE" fill-opacity="0.3"/>
<path d="M184.301 16.6994L174.842 26.179L171.142 22.4591C170.765 22.0825 170.254 21.871 169.722 21.871C169.189 21.871 168.679 22.0825 168.302 22.4591C167.925 22.8357 167.714 23.3465 167.714 23.8791C167.714 24.1428 167.766 24.4039 167.867 24.6475C167.968 24.8912 168.115 25.1125 168.302 25.299L173.422 30.4188C173.608 30.6062 173.829 30.755 174.073 30.8566C174.316 30.9581 174.578 31.0104 174.842 31.0104C175.106 31.0104 175.367 30.9581 175.611 30.8566C175.854 30.755 176.076 30.6062 176.262 30.4188L187.141 19.5393C187.328 19.3528 187.475 19.1314 187.576 18.8878C187.677 18.6442 187.729 18.383 187.729 18.1193C187.729 17.8556 187.677 17.5945 187.576 17.3509C187.475 17.1072 187.328 16.8859 187.141 16.6994C186.955 16.5129 186.733 16.365 186.49 16.2641C186.246 16.1632 185.985 16.1112 185.721 16.1112C185.457 16.1112 185.196 16.1632 184.953 16.2641C184.709 16.365 184.488 16.5129 184.301 16.6994ZM177.722 3C175.095 3 172.495 3.51729 170.068 4.52234C167.642 5.52739 165.437 7.00052 163.58 8.85761C159.829 12.6082 157.722 17.695 157.722 22.9991C157.705 27.6172 159.304 32.0958 162.242 35.6586L158.242 39.6584C157.965 39.9396 157.777 40.2967 157.702 40.6847C157.627 41.0727 157.669 41.4741 157.822 41.8383C157.988 42.1981 158.258 42.5005 158.596 42.707C158.934 42.9135 159.326 43.0149 159.722 42.9982H177.722C183.026 42.9982 188.112 40.8912 191.863 37.1406C195.614 33.3901 197.721 28.3032 197.721 22.9991C197.721 17.695 195.614 12.6082 191.863 8.85761C188.112 5.10704 183.026 3 177.722 3ZM177.722 38.9984H164.542L166.402 37.1385C166.774 36.7638 166.984 36.2569 166.984 35.7286C166.984 35.2002 166.774 34.6933 166.402 34.3186C163.783 31.7028 162.153 28.26 161.788 24.5766C161.423 20.8933 162.346 17.1974 164.401 14.1186C166.455 11.0397 169.513 8.76846 173.055 7.69174C176.596 6.61502 180.401 6.79944 183.822 8.2136C187.242 9.62775 190.067 12.1841 191.814 15.4472C193.561 18.7103 194.123 22.4782 193.403 26.109C192.684 29.7398 190.728 33.0088 187.868 35.3591C185.009 37.7093 181.423 38.9955 177.722 38.9984Z" fill="#571EAE" fill-opacity="0.3"/>
<path d="M665.655 37.6521C673.822 37.6521 677.907 37.6521 680.443 35.1139C682.981 32.5778 682.981 28.4932 682.981 20.3261C682.981 12.159 682.981 8.07437 680.443 5.53827C677.907 3 673.822 3 665.655 3H656.992C648.825 3 644.74 3 642.204 5.53827C639.666 8.07437 639.666 12.159 639.666 20.3261C639.666 28.4932 639.666 32.5778 642.204 35.1139C643.619 36.5303 645.514 37.1562 648.329 37.4312" stroke="#571EAE" stroke-opacity="0.3" stroke-width="5" stroke-linecap="round" stroke-linejoin="round"/>
<path d="M665.655 37.6521C662.979 37.6521 660.029 38.735 657.337 40.1319C653.01 42.3778 650.846 43.5019 649.78 42.785C648.715 42.0703 648.916 39.8504 649.321 35.4127L649.412 34.4035" stroke="#571EAE" stroke-opacity="0.3" stroke-width="5" stroke-linecap="round"/>
<path d="M577.666 16.3333L572.666 19.25V25.0833L577.666 28L582.666 25.0833V19.25L577.666 16.3333ZM580.194 19.7333L577.644 21.22L575.116 19.745L577.666 18.2583L580.194 19.7333ZM574.316 21.2033L576.789 22.6467V25.5633L574.316 24.1217V21.2033ZM578.439 25.625V22.68L581.016 21.1767V24.1217L578.439 25.625ZM562.666 3L557.666 5.91667V11.75L562.666 14.6667L567.666 11.75V5.91667L562.666 3ZM565.194 6.4L562.644 7.88667L560.116 6.41167L562.666 4.925L565.194 6.4ZM559.316 7.86833L561.789 9.31167V12.2283L559.316 10.79V7.86833ZM563.439 12.29V9.34667L566.016 7.84333V10.7883L563.439 12.29ZM562.666 31.3333L557.666 34.25V40.0833L562.666 43L567.666 40.0833V34.25L562.666 31.3333ZM565.194 34.7333L562.644 36.22L560.116 34.745L562.666 33.2583L565.194 34.7333ZM559.316 36.2033L561.789 37.6467V40.5633L559.316 39.1233V36.2033ZM563.439 40.625V37.68L566.016 36.1767V39.1217L563.439 40.625ZM592.666 3L587.666 5.91667V11.75L592.666 14.6667L597.666 11.75V5.91667L592.666 3ZM595.194 6.4L592.644 7.88667L590.116 6.41167L592.666 4.925L595.194 6.4ZM589.316 7.87L591.789 9.31333V12.23L589.316 10.7883V7.87ZM593.439 12.2917V9.34667L596.016 7.84333V10.7883L593.439 12.2917ZM592.666 31.3333L587.666 34.25V40.0833L592.666 43L597.666 40.0833V34.25L592.666 31.3333ZM595.194 34.7333L592.644 36.22L590.116 34.745L592.666 33.2583L595.194 34.7333ZM589.316 36.2033L591.789 37.6467V40.5633L589.316 39.1217V36.2033ZM593.439 40.625V37.68L596.016 36.1767V39.1217L593.439 40.625ZM572.666 8H582.666V9.66667H572.666V8ZM572.666 36.3333H582.666V38H572.666V36.3333ZM563.499 18V28H561.833V18H563.499ZM569.821 17.7133L566.286 14.1783L567.464 13L570.999 16.5333L569.821 17.7133ZM584.333 16.8217L587.868 13.2867L589.046 14.465L585.511 18L584.333 16.8217ZM571.213 27.7983L567.678 31.3333L566.499 30.155L570.034 26.62L571.213 27.7983ZM585.798 26.5483L589.333 30.0833L588.154 31.2617L584.619 27.7267L585.798 26.5483ZM593.499 18V28H591.833V18H593.499Z" fill="#571EAE" fill-opacity="0.3"/>
<path d="M915.666 3L908.466 15.8L895.666 17.4L905.266 28.6L902.066 43L915.666 36.6L929.266 43L926.066 28.6L935.666 17.4L922.866 15.8L915.666 3Z" stroke="#571EAE" stroke-opacity="0.3" stroke-width="5" stroke-linecap="round" stroke-linejoin="round"/>
<path d="M1104.67 3H1064.67C1061.92 3 1059.67 5.25 1059.67 8V38C1059.67 40.75 1061.92 43 1064.67 43H1104.67C1107.42 43 1109.67 40.75 1109.67 38V8C1109.67 5.25 1107.42 3 1104.67 3ZM1104.67 38H1064.67V13L1084.67 25.5L1104.67 13V38ZM1084.67 20.5L1064.67 8H1104.67L1084.67 20.5Z" fill="#571EAE" fill-opacity="0.3"/>
<path d="M993.666 17C993.666 17.5304 993.455 18.0391 993.08 18.4142C992.705 18.7893 992.196 19 991.666 19C991.136 19 990.627 18.7893 990.252 18.4142C989.877 18.0391 989.666 17.5304 989.666 17C989.666 16.4696 989.877 15.9609 990.252 15.5858C990.627 15.2107 991.136 15 991.666 15C992.196 15 992.705 15.2107 993.08 15.5858C993.455 15.9609 993.666 16.4696 993.666 17ZM1003.67 19C1004.2 19 1004.71 18.7893 1005.08 18.4142C1005.46 18.0391 1005.67 17.5304 1005.67 17C1005.67 16.4696 1005.46 15.9609 1005.08 15.5858C1004.71 15.2107 1004.2 15 1003.67 15C1003.14 15 1002.63 15.2107 1002.25 15.5858C1001.88 15.9609 1001.67 16.4696 1001.67 17C1001.67 17.5304 1001.88 18.0391 1002.25 18.4142C1002.63 18.7893 1003.14 19 1003.67 19ZM977.666 11C977.666 8.87827 978.509 6.84344 980.009 5.34315C981.509 3.84285 983.544 3 985.666 3H1009.67C1011.79 3 1013.82 3.84285 1015.32 5.34315C1016.82 6.84344 1017.67 8.87827 1017.67 11V29C1017.67 29.2628 1017.62 29.5232 1017.51 29.7661C1017.41 30.0091 1017.27 30.2299 1017.08 30.416L1005.08 42.416C1004.9 42.6016 1004.68 42.7487 1004.43 42.8489C1004.19 42.9491 1003.93 43.0005 1003.67 43H985.666C983.544 43 981.509 42.1571 980.009 40.6568C978.509 39.1566 977.666 37.1217 977.666 35V11ZM985.666 7C984.605 7 983.588 7.42143 982.838 8.17157C982.087 8.92172 981.666 9.93913 981.666 11V35C981.666 36.0609 982.087 37.0783 982.838 37.8284C983.588 38.5786 984.605 39 985.666 39H997.666V31.04H997.65C994.938 31.04 992.962 29.672 991.75 28.452C991.034 27.7309 990.421 26.9154 989.926 26.028L989.894 25.968L989.886 25.948L989.882 25.94L989.878 25.936C989.65 25.456 989.623 24.9052 989.801 24.4048C989.98 23.9045 990.35 23.4956 990.83 23.268C991.31 23.0404 991.861 23.0129 992.361 23.1914C992.862 23.37 993.27 23.74 993.498 24.22C993.798 24.7324 994.161 25.2054 994.578 25.628C995.362 26.412 996.378 27.04 997.65 27.04C998.05 27.0405 998.447 26.9757 998.826 26.848C1000.23 24.54 1002.77 23 1005.67 23H1013.67V11C1013.67 9.93913 1013.24 8.92172 1012.49 8.17157C1011.74 7.42143 1010.73 7 1009.67 7H985.666ZM1013.67 27H1005.67C1004.61 27 1003.59 27.4214 1002.84 28.1716C1002.09 28.9217 1001.67 29.9391 1001.67 31V39H1002.84L1013.67 28.172V27Z" fill="#571EAE" fill-opacity="0.3"/>
<path d="M820.215 3C814.022 3 809 7.97041 809 14.1027C809 19.0529 810.963 30.8016 830.281 42.6781C830.627 42.8886 831.025 43 831.43 43C831.835 43 832.232 42.8886 832.578 42.6781C851.897 30.8016 853.859 19.0529 853.859 14.1027C853.859 7.97041 848.837 3 842.644 3C836.452 3 831.43 9.7289 831.43 9.7289C831.43 9.7289 826.408 3 820.215 3Z" stroke="#571EAE" stroke-opacity="0.3" stroke-width="5" stroke-linecap="round" stroke-linejoin="round"/>
<path d="M761.523 5.60875C762.214 5.60875 762.878 5.8836 763.367 6.37284C763.856 6.86207 764.131 7.52562 764.131 8.2175V29.0875C764.131 29.7794 763.856 30.443 763.367 30.9322C762.878 31.4214 762.214 31.6963 761.523 31.6963H755.001C754.191 31.6963 753.392 31.8849 752.667 32.2471C751.943 32.6093 751.313 33.1353 750.827 33.7833L745.87 40.3912L740.913 33.7833C740.427 33.1353 739.797 32.6093 739.073 32.2471C738.348 31.8849 737.549 31.6963 736.739 31.6963H730.218C729.526 31.6963 728.862 31.4214 728.373 30.9322C727.884 30.443 727.609 29.7794 727.609 29.0875V8.2175C727.609 7.52562 727.884 6.86207 728.373 6.37284C728.862 5.8836 729.526 5.60875 730.218 5.60875H761.523ZM730.218 3C728.834 3 727.507 3.5497 726.528 4.52817C725.55 5.50664 725 6.83374 725 8.2175V29.0875C725 30.4713 725.55 31.7984 726.528 32.7769C727.507 33.7553 728.834 34.305 730.218 34.305H736.739C737.144 34.305 737.544 34.3993 737.906 34.5804C738.268 34.7616 738.583 35.0245 738.826 35.3485L743.783 41.9565C744.026 42.2805 744.341 42.5435 744.703 42.7246C745.066 42.9057 745.465 43 745.87 43C746.275 43 746.674 42.9057 747.037 42.7246C747.399 42.5435 747.714 42.2805 747.957 41.9565L752.914 35.3485C753.157 35.0245 753.472 34.7616 753.834 34.5804C754.196 34.3993 754.596 34.305 755.001 34.305H761.523C762.906 34.305 764.233 33.7553 765.212 32.7769C766.19 31.7984 766.74 30.4713 766.74 29.0875V8.2175C766.74 6.83374 766.19 5.50664 765.212 4.52817C764.233 3.5497 762.906 3 761.523 3H730.218Z" fill="#571EAE" fill-opacity="0.3"/>
<path d="M745.871 13.4168C750.211 8.95322 761.066 16.7638 745.871 26.8049C730.675 16.7612 741.53 8.95322 745.871 13.4168Z" fill="#571EAE" fill-opacity="0.3"/>
</svg>
