<svg width="1512" height="46" viewBox="0 0 1512 46" fill="none" xmlns="http://www.w3.org/2000/svg">
<path d="M134.734 11.5544H129.546L130.418 6.32031C130.677 4.76629 129.627 3.29782 128.074 3.03852C126.512 2.78234 125.052 3.83077 124.793 5.38202L123.765 11.5544H115.291L116.163 6.32031C116.422 4.76629 115.373 3.29782 113.82 3.03852C112.258 2.78234 110.798 3.83077 110.538 5.38202L109.508 11.5544H103.369C101.794 11.5544 100.517 12.8313 100.517 14.4058C100.517 16.0632 101.794 17.2572 103.369 17.2572H108.557L106.657 28.6628H100.517C98.9429 28.6628 97.666 29.9397 97.666 31.5142C97.666 33.0887 98.9429 34.2854 100.517 34.2854H105.706L104.834 39.5195C104.575 41.0735 105.625 42.542 107.177 42.8013C107.334 42.9911 107.494 43 107.646 43C109.015 43 110.223 42.0118 110.455 40.6182L111.484 34.4458H119.96L119.087 39.6799C118.828 41.2339 119.878 42.7024 121.431 42.9617C121.591 42.9911 121.751 43 121.903 43C123.272 43 124.48 42.0118 124.712 40.6182L125.741 34.4458H131.883C133.457 34.4458 134.734 33.1689 134.734 31.6746C134.734 30.1001 133.457 28.8232 131.883 28.8232H126.694L128.595 17.4176H134.734C136.309 17.4176 137.586 16.1416 137.586 14.6464C137.586 12.9088 136.311 11.5544 134.734 11.5544ZM120.914 28.6628H112.44L114.338 17.2572H122.814L120.914 28.6628Z" fill="#571EAE" fill-opacity="0.3"/>
<path d="M610.068 11.5544H604.88L605.752 6.32031C606.011 4.76629 604.961 3.29782 603.408 3.03852C601.846 2.78234 600.386 3.83077 600.127 5.38202L599.099 11.5544H590.625L591.497 6.32031C591.756 4.76629 590.707 3.29782 589.154 3.03852C587.592 2.78234 586.131 3.83077 585.872 5.38202L584.842 11.5544H578.703C577.128 11.5544 575.851 12.8313 575.851 14.4058C575.851 16.0632 577.128 17.2572 578.703 17.2572H583.891L581.991 28.6628H575.851C574.277 28.6628 573 29.9397 573 31.5142C573 33.0887 574.277 34.2854 575.851 34.2854H581.04L580.168 39.5195C579.909 41.0735 580.959 42.542 582.511 42.8013C582.668 42.9911 582.828 43 582.98 43C584.349 43 585.557 42.0118 585.789 40.6182L586.818 34.4458H595.293L594.421 39.6799C594.162 41.2339 595.212 42.7024 596.765 42.9617C596.925 42.9911 597.085 43 597.237 43C598.606 43 599.814 42.0118 600.046 40.6182L601.075 34.4458H607.217C608.791 34.4458 610.068 33.1689 610.068 31.6746C610.068 30.1001 608.791 28.8232 607.217 28.8232H602.028L603.929 17.4176H610.068C611.643 17.4176 612.92 16.1416 612.92 14.6464C612.92 12.9088 611.645 11.5544 610.068 11.5544ZM596.248 28.6628H587.774L589.672 17.2572H598.148L596.248 28.6628Z" fill="#571EAE" fill-opacity="0.3"/>
<path d="M281.647 18.8851C280.529 18.8851 279.662 19.7519 279.662 20.822C279.662 21.8922 280.529 22.759 281.647 22.759C282.669 22.759 283.536 21.8922 283.536 20.822C283.536 19.7519 282.669 18.8851 281.647 18.8851ZM268.089 18.8851C266.97 18.8851 266.104 19.7519 266.104 20.822C266.104 21.8922 266.97 22.759 268.089 22.759C269.111 22.759 269.977 21.8922 269.977 20.822C269.977 19.7519 269.111 18.8851 268.089 18.8851Z" fill="#571EAE" fill-opacity="0.3"/>
<path d="M297.191 15.2049C294.862 12.0089 291.608 9.87346 288.039 8.90984V8.91468C287.211 7.99463 286.276 7.14722 285.23 6.39181C277.303 0.629413 266.176 2.38719 260.389 10.3141C255.726 16.7544 255.924 25.4174 260.68 31.572L260.718 37.993C260.718 38.148 260.742 38.3029 260.791 38.4482C261.048 39.2665 261.919 39.7169 262.733 39.4602L268.863 37.5281C270.485 38.1044 272.161 38.4337 273.827 38.5257L273.802 38.545C278.117 41.6877 283.773 42.632 288.959 40.9178L295.114 42.9225C295.268 42.9709 295.428 43 295.593 43C296.45 43 297.142 42.3075 297.142 41.4504V34.9617C301.409 29.1702 301.52 21.1658 297.191 15.2049ZM269.541 34.0901L268.96 33.848L264.166 35.3491L264.118 30.313L263.73 29.8772C259.634 24.8799 259.362 17.6793 263.198 12.3963C267.866 5.99474 276.814 4.58077 283.196 9.20038C289.598 13.8539 291.017 22.788 286.392 29.1509C282.514 34.4726 275.57 36.4386 269.541 34.0901ZM293.995 33.2669L293.608 33.7511L293.656 38.7872L288.91 37.1892L288.329 37.4313C285.618 38.4385 282.727 38.5208 280.049 37.7703L280.039 37.7654C283.618 36.6662 286.862 34.4387 289.201 31.2331C292.901 26.1341 293.501 19.7277 291.351 14.2655L291.38 14.2848C292.494 15.0838 293.516 16.0814 294.382 17.2871C297.898 22.1101 297.699 28.6763 293.995 33.2669Z" fill="#571EAE" fill-opacity="0.3"/>
<path d="M274.867 18.8851C273.749 18.8851 272.882 19.7519 272.882 20.822C272.882 21.8922 273.749 22.759 274.867 22.759C275.889 22.759 276.756 21.8922 276.756 20.822C276.756 19.7519 275.889 18.8851 274.867 18.8851Z" fill="#571EAE" fill-opacity="0.3"/>
<path d="M756.98 18.8851C755.862 18.8851 754.995 19.7519 754.995 20.822C754.995 21.8922 755.862 22.759 756.98 22.759C758.002 22.759 758.869 21.8922 758.869 20.822C758.869 19.7519 758.002 18.8851 756.98 18.8851ZM743.422 18.8851C742.303 18.8851 741.437 19.7519 741.437 20.822C741.437 21.8922 742.303 22.759 743.422 22.759C744.444 22.759 745.31 21.8922 745.31 20.822C745.31 19.7519 744.444 18.8851 743.422 18.8851Z" fill="#571EAE" fill-opacity="0.3"/>
<path d="M772.524 15.2049C770.195 12.0089 766.941 9.87346 763.372 8.90984V8.91468C762.544 7.99463 761.609 7.14722 760.563 6.39181C752.636 0.629413 741.509 2.38719 735.722 10.3141C731.059 16.7544 731.257 25.4174 736.013 31.572L736.051 37.993C736.051 38.148 736.076 38.3029 736.124 38.4482C736.381 39.2665 737.252 39.7169 738.066 39.4602L744.196 37.5281C745.818 38.1044 747.494 38.4337 749.16 38.5257L749.135 38.545C753.45 41.6877 759.106 42.632 764.292 40.9178L770.447 42.9225C770.601 42.9709 770.761 43 770.926 43C771.783 43 772.475 42.3075 772.475 41.4504V34.9617C776.742 29.1702 776.853 21.1658 772.524 15.2049ZM744.874 34.0901L744.293 33.848L739.499 35.3491L739.451 30.313L739.063 29.8772C734.967 24.8799 734.695 17.6793 738.531 12.3963C743.199 5.99474 752.147 4.58077 758.529 9.20038C764.931 13.8539 766.35 22.788 761.725 29.1509C757.847 34.4726 750.903 36.4386 744.874 34.0901ZM769.328 33.2669L768.941 33.7511L768.989 38.7872L764.243 37.1892L763.662 37.4313C760.951 38.4385 758.06 38.5208 755.382 37.7703L755.372 37.7654C758.951 36.6662 762.195 34.4387 764.534 31.2331C768.234 26.1341 768.834 19.7277 766.684 14.2655L766.713 14.2848C767.827 15.0838 768.849 16.0814 769.715 17.2871C773.231 22.1101 773.032 28.6763 769.328 33.2669Z" fill="#571EAE" fill-opacity="0.3"/>
<path d="M750.2 18.8851C749.082 18.8851 748.215 19.7519 748.215 20.822C748.215 21.8922 749.082 22.759 750.2 22.759C751.222 22.759 752.089 21.8922 752.089 20.822C752.089 19.7519 751.222 18.8851 750.2 18.8851Z" fill="#571EAE" fill-opacity="0.3"/>
<path d="M47.6673 9.33333C47.2253 9.33333 46.8014 9.15774 46.4888 8.84518C46.1762 8.53262 46.0007 8.10869 46.0007 7.66667C46.0007 7.22464 46.1762 6.80072 46.4888 6.48816C46.8014 6.17559 47.2253 6 47.6673 6H54.334C54.776 6 55.1999 6.17559 55.5125 6.48816C55.8251 6.80072 56.0007 7.22464 56.0007 7.66667V14.3333C56.0007 14.7754 55.8251 15.1993 55.5125 15.5118C55.1999 15.8244 54.776 16 54.334 16C53.892 16 53.468 15.8244 53.1555 15.5118C52.8429 15.1993 52.6673 14.7754 52.6673 14.3333V11.69L43.0123 21.345C42.6998 21.6575 42.2759 21.833 41.834 21.833C41.392 21.833 40.9682 21.6575 40.6557 21.345L36.0007 16.69L27.179 25.5117C26.8646 25.8153 26.4436 25.9833 26.0066 25.9795C25.5697 25.9757 25.1516 25.8004 24.8426 25.4914C24.5336 25.1824 24.3583 24.7643 24.3545 24.3273C24.3507 23.8903 24.5187 23.4693 24.8223 23.155L34.8223 13.155C35.1349 12.8425 35.5587 12.667 36.0007 12.667C36.4426 12.667 36.8664 12.8425 37.179 13.155L41.834 17.81L50.3107 9.33333H47.6673ZM27.6673 32.6667V37.6667C27.6673 38.1087 27.4917 38.5326 27.1792 38.8452C26.8666 39.1577 26.4427 39.3333 26.0007 39.3333C25.5586 39.3333 25.1347 39.1577 24.8221 38.8452C24.5096 38.5326 24.334 38.1087 24.334 37.6667V32.6667C24.334 32.2246 24.5096 31.8007 24.8221 31.4882C25.1347 31.1756 25.5586 31 26.0007 31C26.4427 31 26.8666 31.1756 27.1792 31.4882C27.4917 31.8007 27.6673 32.2246 27.6673 32.6667ZM36.0007 26C36.0007 25.558 35.8251 25.1341 35.5125 24.8215C35.1999 24.5089 34.776 24.3333 34.334 24.3333C33.892 24.3333 33.468 24.5089 33.1555 24.8215C32.8429 25.1341 32.6673 25.558 32.6673 26V37.6667C32.6673 38.1087 32.8429 38.5326 33.1555 38.8452C33.468 39.1577 33.892 39.3333 34.334 39.3333C34.776 39.3333 35.1999 39.1577 35.5125 38.8452C35.8251 38.5326 36.0007 38.1087 36.0007 37.6667V26ZM42.6673 27.6667C43.1093 27.6667 43.5333 27.8423 43.8458 28.1548C44.1584 28.4674 44.334 28.8913 44.334 29.3333V37.6667C44.334 38.1087 44.1584 38.5326 43.8458 38.8452C43.5333 39.1577 43.1093 39.3333 42.6673 39.3333C42.2253 39.3333 41.8014 39.1577 41.4888 38.8452C41.1762 38.5326 41.0007 38.1087 41.0007 37.6667V29.3333C41.0007 28.8913 41.1762 28.4674 41.4888 28.1548C41.8014 27.8423 42.2253 27.6667 42.6673 27.6667ZM52.6673 21C52.6673 20.558 52.4917 20.1341 52.1792 19.8215C51.8666 19.5089 51.4427 19.3333 51.0007 19.3333C50.5586 19.3333 50.1347 19.5089 49.8221 19.8215C49.5096 20.1341 49.334 20.558 49.334 21V37.6667C49.334 38.1087 49.5096 38.5326 49.8221 38.8452C50.1347 39.1577 50.5586 39.3333 51.0007 39.3333C51.4427 39.3333 51.8666 39.1577 52.1792 38.8452C52.4917 38.5326 52.6673 38.1087 52.6673 37.6667V21Z" fill="#571EAE" fill-opacity="0.3"/>
<path d="M522.999 9.33333C522.557 9.33333 522.133 9.15774 521.821 8.84518C521.508 8.53262 521.333 8.10869 521.333 7.66667C521.333 7.22464 521.508 6.80072 521.821 6.48816C522.133 6.17559 522.557 6 522.999 6H529.666C530.108 6 530.532 6.17559 530.845 6.48816C531.157 6.80072 531.333 7.22464 531.333 7.66667V14.3333C531.333 14.7754 531.157 15.1993 530.845 15.5118C530.532 15.8244 530.108 16 529.666 16C529.224 16 528.8 15.8244 528.488 15.5118C528.175 15.1993 527.999 14.7754 527.999 14.3333V11.69L518.344 21.345C518.032 21.6575 517.608 21.833 517.166 21.833C516.724 21.833 516.3 21.6575 515.988 21.345L511.333 16.69L502.511 25.5117C502.197 25.8153 501.776 25.9833 501.339 25.9795C500.902 25.9757 500.484 25.8004 500.175 25.4914C499.866 25.1824 499.69 24.7643 499.687 24.3273C499.683 23.8903 499.851 23.4693 500.154 23.155L510.154 13.155C510.467 12.8425 510.891 12.667 511.333 12.667C511.775 12.667 512.198 12.8425 512.511 13.155L517.166 17.81L525.643 9.33333H522.999ZM502.999 32.6667V37.6667C502.999 38.1087 502.824 38.5326 502.511 38.8452C502.199 39.1577 501.775 39.3333 501.333 39.3333C500.891 39.3333 500.467 39.1577 500.154 38.8452C499.842 38.5326 499.666 38.1087 499.666 37.6667V32.6667C499.666 32.2246 499.842 31.8007 500.154 31.4882C500.467 31.1756 500.891 31 501.333 31C501.775 31 502.199 31.1756 502.511 31.4882C502.824 31.8007 502.999 32.2246 502.999 32.6667ZM511.333 26C511.333 25.558 511.157 25.1341 510.845 24.8215C510.532 24.5089 510.108 24.3333 509.666 24.3333C509.224 24.3333 508.8 24.5089 508.488 24.8215C508.175 25.1341 507.999 25.558 507.999 26V37.6667C507.999 38.1087 508.175 38.5326 508.488 38.8452C508.8 39.1577 509.224 39.3333 509.666 39.3333C510.108 39.3333 510.532 39.1577 510.845 38.8452C511.157 38.5326 511.333 38.1087 511.333 37.6667V26ZM517.999 27.6667C518.441 27.6667 518.865 27.8423 519.178 28.1548C519.49 28.4674 519.666 28.8913 519.666 29.3333V37.6667C519.666 38.1087 519.49 38.5326 519.178 38.8452C518.865 39.1577 518.441 39.3333 517.999 39.3333C517.557 39.3333 517.133 39.1577 516.821 38.8452C516.508 38.5326 516.333 38.1087 516.333 37.6667V29.3333C516.333 28.8913 516.508 28.4674 516.821 28.1548C517.133 27.8423 517.557 27.6667 517.999 27.6667ZM527.999 21C527.999 20.558 527.824 20.1341 527.511 19.8215C527.199 19.5089 526.775 19.3333 526.333 19.3333C525.891 19.3333 525.467 19.5089 525.154 19.8215C524.842 20.1341 524.666 20.558 524.666 21V37.6667C524.666 38.1087 524.842 38.5326 525.154 38.8452C525.467 39.1577 525.891 39.3333 526.333 39.3333C526.775 39.3333 527.199 39.1577 527.511 38.8452C527.824 38.5326 527.999 38.1087 527.999 37.6667V21Z" fill="#571EAE" fill-opacity="0.3"/>
<path d="M205.916 22.5219C204.033 22.5237 202.2 23.133 200.691 24.2594L195.416 18.9844C196.556 17.4861 197.171 15.6544 197.166 13.7719C197.171 11.8005 196.51 9.88525 195.29 8.33646C194.071 6.78768 192.364 5.69615 190.446 5.23877C188.529 4.78139 186.513 4.98495 184.725 5.81648C182.938 6.648 181.484 8.05876 180.598 9.82011C179.713 11.5815 179.448 13.5902 179.847 15.5208C180.246 17.4514 181.285 19.1907 182.796 20.4568C184.307 21.7229 186.202 22.4417 188.172 22.4966C190.143 22.5515 192.074 21.9394 193.653 20.7594L198.916 26.0344C197.736 27.6132 197.124 29.544 197.179 31.5141C197.233 33.4841 197.951 35.3781 199.217 36.8892C200.482 38.4003 202.22 39.44 204.15 39.8399C206.08 40.2398 208.088 39.9764 209.85 39.0925C211.611 38.2086 213.023 36.7559 213.856 34.9697C214.688 33.1835 214.894 31.1685 214.439 29.2509C213.984 27.3334 212.894 25.6256 211.348 24.4044C209.801 23.1831 207.887 22.5198 205.916 22.5219ZM182.166 13.7719C182.166 12.5358 182.533 11.3274 183.219 10.2996C183.906 9.27176 184.882 8.47069 186.024 7.99764C187.166 7.52459 188.423 7.40082 189.635 7.64198C190.848 7.88313 191.961 8.47839 192.835 9.35247C193.709 10.2265 194.305 11.3402 194.546 12.5526C194.787 13.765 194.663 15.0216 194.19 16.1637C193.717 17.3057 192.916 18.2818 191.888 18.9686C190.861 19.6553 189.652 20.0219 188.416 20.0219C186.758 20.0219 185.169 19.3634 183.997 18.1913C182.824 17.0192 182.166 15.4295 182.166 13.7719Z" fill="#571EAE" fill-opacity="0.3"/>
<path d="M681.25 22.5219C679.367 22.5237 677.534 23.133 676.025 24.2594L670.75 18.9844C671.89 17.4861 672.505 15.6544 672.5 13.7719C672.505 11.8005 671.844 9.88525 670.624 8.33646C669.405 6.78768 667.698 5.69615 665.78 5.23877C663.863 4.78139 661.847 4.98495 660.059 5.81648C658.272 6.648 656.818 8.05876 655.932 9.82011C655.047 11.5815 654.782 13.5902 655.181 15.5208C655.58 17.4514 656.619 19.1907 658.13 20.4568C659.641 21.7229 661.536 22.4417 663.506 22.4966C665.477 22.5515 667.408 21.9394 668.987 20.7594L674.25 26.0344C673.07 27.6132 672.458 29.544 672.513 31.5141C672.567 33.4841 673.285 35.3781 674.551 36.8892C675.816 38.4003 677.554 39.44 679.484 39.8399C681.414 40.2398 683.422 39.9764 685.184 39.0925C686.945 38.2086 688.357 36.7559 689.19 34.9697C690.022 33.1835 690.228 31.1685 689.773 29.2509C689.318 27.3334 688.228 25.6256 686.681 24.4044C685.135 23.1831 683.221 22.5198 681.25 22.5219ZM657.5 13.7719C657.5 12.5358 657.867 11.3274 658.553 10.2996C659.24 9.27176 660.216 8.47069 661.358 7.99764C662.5 7.52459 663.757 7.40082 664.969 7.64198C666.182 7.88313 667.295 8.47839 668.169 9.35247C669.043 10.2265 669.639 11.3402 669.88 12.5526C670.121 13.765 669.997 15.0216 669.524 16.1637C669.051 17.3057 668.25 18.2818 667.222 18.9686C666.194 19.6553 664.986 20.0219 663.75 20.0219C662.092 20.0219 660.503 19.3634 659.331 18.1913C658.158 17.0192 657.5 15.4295 657.5 13.7719Z" fill="#571EAE" fill-opacity="0.3"/>
<path d="M1427 26H1423.67C1423.67 22.0218 1425.25 18.2064 1428.06 15.3934C1430.87 12.5804 1434.69 11 1438.67 11V14.3333C1432.22 14.3333 1427 19.55 1427 26ZM1438.67 21V17.6667C1434.07 17.6667 1430.33 21.4 1430.33 26H1433.67C1433.67 23.2333 1435.9 21 1438.67 21ZM1420.33 9.33333C1420.33 7.48333 1418.85 6 1417 6C1415.15 6 1413.67 7.48333 1413.67 9.33333C1413.67 11.1833 1415.15 12.6667 1417 12.6667C1418.85 12.6667 1420.33 11.1833 1420.33 9.33333ZM1427.75 10.1667H1424.42C1424.22 11.3309 1423.62 12.3887 1422.72 13.1518C1421.82 13.9148 1420.68 14.3335 1419.5 14.3333H1414.5C1413.12 14.3333 1412 15.45 1412 16.8333V21H1422V17.2333C1423.54 16.7463 1424.91 15.8174 1425.93 14.5615C1426.96 13.3056 1427.59 11.7776 1427.75 10.1667ZM1440.33 31C1442.18 31 1443.67 29.5167 1443.67 27.6667C1443.67 25.8167 1442.18 24.3333 1440.33 24.3333C1438.48 24.3333 1437 25.8167 1437 27.6667C1437 29.5167 1438.48 31 1440.33 31ZM1442.83 32.6667H1437.83C1436.65 32.6668 1435.51 32.2481 1434.61 31.4851C1433.71 30.7221 1433.11 29.6643 1432.92 28.5H1429.58C1429.75 30.111 1430.38 31.6389 1431.4 32.8948C1432.42 34.1508 1433.79 35.0797 1435.33 35.5667V39.3333H1445.33V35.1667C1445.33 33.7833 1444.22 32.6667 1442.83 32.6667Z" fill="#571EAE" fill-opacity="0.3"/>
<path d="M357.334 26H354.001C354.001 22.0218 355.581 18.2064 358.394 15.3934C361.207 12.5804 365.022 11 369.001 11V14.3333C362.551 14.3333 357.334 19.55 357.334 26ZM369.001 21V17.6667C364.401 17.6667 360.667 21.4 360.667 26H364.001C364.001 23.2333 366.234 21 369.001 21ZM350.667 9.33333C350.667 7.48333 349.184 6 347.334 6C345.484 6 344.001 7.48333 344.001 9.33333C344.001 11.1833 345.484 12.6667 347.334 12.6667C349.184 12.6667 350.667 11.1833 350.667 9.33333ZM358.084 10.1667H354.751C354.557 11.3309 353.957 12.3887 353.057 13.1518C352.156 13.9148 351.014 14.3335 349.834 14.3333H344.834C343.451 14.3333 342.334 15.45 342.334 16.8333V21H352.334V17.2333C353.878 16.7463 355.246 15.8174 356.268 14.5615C357.29 13.3056 357.921 11.7776 358.084 10.1667ZM370.667 31C372.517 31 374.001 29.5167 374.001 27.6667C374.001 25.8167 372.517 24.3333 370.667 24.3333C368.817 24.3333 367.334 25.8167 367.334 27.6667C367.334 29.5167 368.817 31 370.667 31ZM373.167 32.6667H368.167C366.987 32.6668 365.845 32.2481 364.945 31.4851C364.044 30.7221 363.444 29.6643 363.251 28.5H359.917C360.08 30.111 360.712 31.6389 361.734 32.8948C362.755 34.1508 364.123 35.0797 365.667 35.5667V39.3333H375.667V35.1667C375.667 33.7833 374.551 32.6667 373.167 32.6667Z" fill="#571EAE" fill-opacity="0.3"/>
<path d="M1513.97 16.6994L1504.51 26.179L1500.81 22.4591C1500.43 22.0825 1499.92 21.871 1499.39 21.871C1498.86 21.871 1498.35 22.0825 1497.97 22.4591C1497.59 22.8357 1497.38 23.3465 1497.38 23.8791C1497.38 24.1428 1497.43 24.4039 1497.53 24.6475C1497.64 24.8912 1497.78 25.1125 1497.97 25.299L1503.09 30.4188C1503.28 30.6062 1503.5 30.755 1503.74 30.8566C1503.98 30.9581 1504.25 31.0104 1504.51 31.0104C1504.77 31.0104 1505.04 30.9581 1505.28 30.8566C1505.52 30.755 1505.74 30.6062 1505.93 30.4188L1516.81 19.5393C1517 19.3528 1517.14 19.1314 1517.24 18.8878C1517.35 18.6442 1517.4 18.383 1517.4 18.1193C1517.4 17.8556 1517.35 17.5945 1517.24 17.3509C1517.14 17.1072 1517 16.8859 1516.81 16.6994C1516.62 16.5129 1516.4 16.365 1516.16 16.2641C1515.91 16.1632 1515.65 16.1112 1515.39 16.1112C1515.13 16.1112 1514.86 16.1632 1514.62 16.2641C1514.38 16.365 1514.16 16.5129 1513.97 16.6994ZM1507.39 3C1504.76 3 1502.16 3.51729 1499.74 4.52234C1497.31 5.52739 1495.11 7.00052 1493.25 8.85761C1489.5 12.6082 1487.39 17.695 1487.39 22.9991C1487.37 27.6172 1488.97 32.0958 1491.91 35.6586L1487.91 39.6584C1487.63 39.9396 1487.44 40.2967 1487.37 40.6847C1487.3 41.0727 1487.34 41.4741 1487.49 41.8383C1487.66 42.1981 1487.93 42.5005 1488.26 42.707C1488.6 42.9135 1488.99 43.0149 1489.39 42.9982H1507.39C1512.69 42.9982 1517.78 40.8912 1521.53 37.1406C1525.28 33.3901 1527.39 28.3032 1527.39 22.9991C1527.39 17.695 1525.28 12.6082 1521.53 8.85761C1517.78 5.10704 1512.69 3 1507.39 3ZM1507.39 38.9984H1494.21L1496.07 37.1385C1496.44 36.7638 1496.65 36.2569 1496.65 35.7286C1496.65 35.2002 1496.44 34.6933 1496.07 34.3186C1493.45 31.7028 1491.82 28.26 1491.46 24.5766C1491.09 20.8933 1492.01 17.1974 1494.07 14.1186C1496.12 11.0397 1499.18 8.76846 1502.72 7.69174C1506.26 6.61502 1510.07 6.79944 1513.49 8.2136C1516.91 9.62775 1519.73 12.1841 1521.48 15.4472C1523.23 18.7103 1523.79 22.4782 1523.07 26.109C1522.35 29.7398 1520.4 33.0088 1517.54 35.3591C1514.68 37.7093 1511.09 38.9955 1507.39 38.9984Z" fill="#571EAE" fill-opacity="0.3"/>
<path d="M444.301 16.6994L434.842 26.179L431.142 22.4591C430.765 22.0825 430.254 21.871 429.722 21.871C429.189 21.871 428.679 22.0825 428.302 22.4591C427.925 22.8357 427.714 23.3465 427.714 23.8791C427.714 24.1428 427.766 24.4039 427.867 24.6475C427.968 24.8912 428.115 25.1125 428.302 25.299L433.422 30.4188C433.608 30.6062 433.829 30.755 434.073 30.8566C434.316 30.9581 434.578 31.0104 434.842 31.0104C435.106 31.0104 435.367 30.9581 435.611 30.8566C435.854 30.755 436.076 30.6062 436.262 30.4188L447.141 19.5393C447.328 19.3528 447.475 19.1314 447.576 18.8878C447.677 18.6442 447.729 18.383 447.729 18.1193C447.729 17.8556 447.677 17.5945 447.576 17.3509C447.475 17.1072 447.328 16.8859 447.141 16.6994C446.955 16.5129 446.733 16.365 446.49 16.2641C446.246 16.1632 445.985 16.1112 445.721 16.1112C445.457 16.1112 445.196 16.1632 444.953 16.2641C444.709 16.365 444.488 16.5129 444.301 16.6994ZM437.722 3C435.095 3 432.495 3.51729 430.068 4.52234C427.642 5.52739 425.437 7.00052 423.58 8.85761C419.829 12.6082 417.722 17.695 417.722 22.9991C417.705 27.6172 419.304 32.0958 422.242 35.6586L418.242 39.6584C417.965 39.9396 417.777 40.2967 417.702 40.6847C417.627 41.0727 417.669 41.4741 417.822 41.8383C417.988 42.1981 418.258 42.5005 418.596 42.707C418.934 42.9135 419.326 43.0149 419.722 42.9982H437.722C443.026 42.9982 448.112 40.8912 451.863 37.1406C455.614 33.3901 457.721 28.3032 457.721 22.9991C457.721 17.695 455.614 12.6082 451.863 8.85761C448.112 5.10704 443.026 3 437.722 3ZM437.722 38.9984H424.542L426.402 37.1385C426.774 36.7638 426.984 36.2569 426.984 35.7286C426.984 35.2002 426.774 34.6933 426.402 34.3186C423.783 31.7028 422.153 28.26 421.788 24.5766C421.423 20.8933 422.346 17.1974 424.401 14.1186C426.455 11.0397 429.513 8.76846 433.055 7.69174C436.596 6.61502 440.401 6.79944 443.822 8.2136C447.242 9.62775 450.067 12.1841 451.814 15.4472C453.561 18.7103 454.123 22.4782 453.403 26.109C452.684 29.7398 450.728 33.0088 447.868 35.3591C445.009 37.7093 441.423 38.9955 437.722 38.9984Z" fill="#571EAE" fill-opacity="0.3"/>
<path d="M925.655 37.6521C933.822 37.6521 937.907 37.6521 940.443 35.1139C942.981 32.5778 942.981 28.4932 942.981 20.3261C942.981 12.159 942.981 8.07437 940.443 5.53827C937.907 3 933.822 3 925.655 3H916.992C908.825 3 904.74 3 902.204 5.53827C899.666 8.07437 899.666 12.159 899.666 20.3261C899.666 28.4932 899.666 32.5778 902.204 35.1139C903.619 36.5303 905.514 37.1562 908.329 37.4312" stroke="#571EAE" stroke-opacity="0.3" stroke-width="5" stroke-linecap="round" stroke-linejoin="round"/>
<path d="M925.655 37.6521C922.979 37.6521 920.029 38.735 917.337 40.1319C913.01 42.3778 910.846 43.5019 909.78 42.785C908.715 42.0703 908.916 39.8504 909.321 35.4127L909.412 34.4035" stroke="#571EAE" stroke-opacity="0.3" stroke-width="5" stroke-linecap="round"/>
<path d="M837.666 16.3333L832.666 19.25V25.0833L837.666 28L842.666 25.0833V19.25L837.666 16.3333ZM840.194 19.7333L837.644 21.22L835.116 19.745L837.666 18.2583L840.194 19.7333ZM834.316 21.2033L836.789 22.6467V25.5633L834.316 24.1217V21.2033ZM838.439 25.625V22.68L841.016 21.1767V24.1217L838.439 25.625ZM822.666 3L817.666 5.91667V11.75L822.666 14.6667L827.666 11.75V5.91667L822.666 3ZM825.194 6.4L822.644 7.88667L820.116 6.41167L822.666 4.925L825.194 6.4ZM819.316 7.86833L821.789 9.31167V12.2283L819.316 10.79V7.86833ZM823.439 12.29V9.34667L826.016 7.84333V10.7883L823.439 12.29ZM822.666 31.3333L817.666 34.25V40.0833L822.666 43L827.666 40.0833V34.25L822.666 31.3333ZM825.194 34.7333L822.644 36.22L820.116 34.745L822.666 33.2583L825.194 34.7333ZM819.316 36.2033L821.789 37.6467V40.5633L819.316 39.1233V36.2033ZM823.439 40.625V37.68L826.016 36.1767V39.1217L823.439 40.625ZM852.666 3L847.666 5.91667V11.75L852.666 14.6667L857.666 11.75V5.91667L852.666 3ZM855.194 6.4L852.644 7.88667L850.116 6.41167L852.666 4.925L855.194 6.4ZM849.316 7.87L851.789 9.31333V12.23L849.316 10.7883V7.87ZM853.439 12.2917V9.34667L856.016 7.84333V10.7883L853.439 12.2917ZM852.666 31.3333L847.666 34.25V40.0833L852.666 43L857.666 40.0833V34.25L852.666 31.3333ZM855.194 34.7333L852.644 36.22L850.116 34.745L852.666 33.2583L855.194 34.7333ZM849.316 36.2033L851.789 37.6467V40.5633L849.316 39.1217V36.2033ZM853.439 40.625V37.68L856.016 36.1767V39.1217L853.439 40.625ZM832.666 8H842.666V9.66667H832.666V8ZM832.666 36.3333H842.666V38H832.666V36.3333ZM823.499 18V28H821.833V18H823.499ZM829.821 17.7133L826.286 14.1783L827.464 13L830.999 16.5333L829.821 17.7133ZM844.333 16.8217L847.868 13.2867L849.046 14.465L845.511 18L844.333 16.8217ZM831.213 27.7983L827.678 31.3333L826.499 30.155L830.034 26.62L831.213 27.7983ZM845.798 26.5483L849.333 30.0833L848.154 31.2617L844.619 27.7267L845.798 26.5483ZM853.499 18V28H851.833V18H853.499Z" fill="#571EAE" fill-opacity="0.3"/>
<path d="M1175.67 3L1168.47 15.8L1155.67 17.4L1165.27 28.6L1162.07 43L1175.67 36.6L1189.27 43L1186.07 28.6L1195.67 17.4L1182.87 15.8L1175.67 3Z" stroke="#571EAE" stroke-opacity="0.3" stroke-width="5" stroke-linecap="round" stroke-linejoin="round"/>
<path d="M1364.67 3H1324.67C1321.92 3 1319.67 5.25 1319.67 8V38C1319.67 40.75 1321.92 43 1324.67 43H1364.67C1367.42 43 1369.67 40.75 1369.67 38V8C1369.67 5.25 1367.42 3 1364.67 3ZM1364.67 38H1324.67V13L1344.67 25.5L1364.67 13V38ZM1344.67 20.5L1324.67 8H1364.67L1344.67 20.5Z" fill="#571EAE" fill-opacity="0.3"/>
<path d="M1253.67 17C1253.67 17.5304 1253.46 18.0391 1253.08 18.4142C1252.71 18.7893 1252.2 19 1251.67 19C1251.14 19 1250.63 18.7893 1250.25 18.4142C1249.88 18.0391 1249.67 17.5304 1249.67 17C1249.67 16.4696 1249.88 15.9609 1250.25 15.5858C1250.63 15.2107 1251.14 15 1251.67 15C1252.2 15 1252.71 15.2107 1253.08 15.5858C1253.46 15.9609 1253.67 16.4696 1253.67 17ZM1263.67 19C1264.2 19 1264.71 18.7893 1265.08 18.4142C1265.46 18.0391 1265.67 17.5304 1265.67 17C1265.67 16.4696 1265.46 15.9609 1265.08 15.5858C1264.71 15.2107 1264.2 15 1263.67 15C1263.14 15 1262.63 15.2107 1262.25 15.5858C1261.88 15.9609 1261.67 16.4696 1261.67 17C1261.67 17.5304 1261.88 18.0391 1262.25 18.4142C1262.63 18.7893 1263.14 19 1263.67 19ZM1237.67 11C1237.67 8.87827 1238.51 6.84344 1240.01 5.34315C1241.51 3.84285 1243.54 3 1245.67 3H1269.67C1271.79 3 1273.82 3.84285 1275.32 5.34315C1276.82 6.84344 1277.67 8.87827 1277.67 11V29C1277.67 29.2628 1277.62 29.5232 1277.51 29.7661C1277.41 30.0091 1277.27 30.2299 1277.08 30.416L1265.08 42.416C1264.9 42.6016 1264.68 42.7487 1264.43 42.8489C1264.19 42.9491 1263.93 43.0005 1263.67 43H1245.67C1243.54 43 1241.51 42.1571 1240.01 40.6568C1238.51 39.1566 1237.67 37.1217 1237.67 35V11ZM1245.67 7C1244.61 7 1243.59 7.42143 1242.84 8.17157C1242.09 8.92172 1241.67 9.93913 1241.67 11V35C1241.67 36.0609 1242.09 37.0783 1242.84 37.8284C1243.59 38.5786 1244.61 39 1245.67 39H1257.67V31.04H1257.65C1254.94 31.04 1252.96 29.672 1251.75 28.452C1251.03 27.7309 1250.42 26.9154 1249.93 26.028L1249.89 25.968L1249.89 25.948L1249.88 25.94L1249.88 25.936C1249.65 25.456 1249.62 24.9052 1249.8 24.4048C1249.98 23.9045 1250.35 23.4956 1250.83 23.268C1251.31 23.0404 1251.86 23.0129 1252.36 23.1914C1252.86 23.37 1253.27 23.74 1253.5 24.22C1253.8 24.7324 1254.16 25.2054 1254.58 25.628C1255.36 26.412 1256.38 27.04 1257.65 27.04C1258.05 27.0405 1258.45 26.9757 1258.83 26.848C1260.23 24.54 1262.77 23 1265.67 23H1273.67V11C1273.67 9.93913 1273.24 8.92172 1272.49 8.17157C1271.74 7.42143 1270.73 7 1269.67 7H1245.67ZM1273.67 27H1265.67C1264.61 27 1263.59 27.4214 1262.84 28.1716C1262.09 28.9217 1261.67 29.9391 1261.67 31V39H1262.84L1273.67 28.172V27Z" fill="#571EAE" fill-opacity="0.3"/>
<path d="M1080.21 3C1074.02 3 1069 7.97041 1069 14.1027C1069 19.0529 1070.96 30.8016 1090.28 42.6781C1090.63 42.8886 1091.02 43 1091.43 43C1091.83 43 1092.23 42.8886 1092.58 42.6781C1111.9 30.8016 1113.86 19.0529 1113.86 14.1027C1113.86 7.97041 1108.84 3 1102.64 3C1096.45 3 1091.43 9.7289 1091.43 9.7289C1091.43 9.7289 1086.41 3 1080.21 3Z" stroke="#571EAE" stroke-opacity="0.3" stroke-width="5" stroke-linecap="round" stroke-linejoin="round"/>
<path d="M1021.52 5.60875C1022.21 5.60875 1022.88 5.8836 1023.37 6.37284C1023.86 6.86207 1024.13 7.52562 1024.13 8.2175V29.0875C1024.13 29.7794 1023.86 30.443 1023.37 30.9322C1022.88 31.4214 1022.21 31.6963 1021.52 31.6963H1015C1014.19 31.6963 1013.39 31.8849 1012.67 32.2471C1011.94 32.6093 1011.31 33.1353 1010.83 33.7833L1005.87 40.3912L1000.91 33.7833C1000.43 33.1353 999.797 32.6093 999.073 32.2471C998.348 31.8849 997.549 31.6963 996.739 31.6963H990.218C989.526 31.6963 988.862 31.4214 988.373 30.9322C987.884 30.443 987.609 29.7794 987.609 29.0875V8.2175C987.609 7.52562 987.884 6.86207 988.373 6.37284C988.862 5.8836 989.526 5.60875 990.218 5.60875H1021.52ZM990.218 3C988.834 3 987.507 3.5497 986.528 4.52817C985.55 5.50664 985 6.83374 985 8.2175V29.0875C985 30.4713 985.55 31.7984 986.528 32.7769C987.507 33.7553 988.834 34.305 990.218 34.305H996.739C997.144 34.305 997.544 34.3993 997.906 34.5804C998.268 34.7616 998.583 35.0245 998.826 35.3485L1003.78 41.9565C1004.03 42.2805 1004.34 42.5435 1004.7 42.7246C1005.07 42.9057 1005.47 43 1005.87 43C1006.28 43 1006.67 42.9057 1007.04 42.7246C1007.4 42.5435 1007.71 42.2805 1007.96 41.9565L1012.91 35.3485C1013.16 35.0245 1013.47 34.7616 1013.83 34.5804C1014.2 34.3993 1014.6 34.305 1015 34.305H1021.52C1022.91 34.305 1024.23 33.7553 1025.21 32.7769C1026.19 31.7984 1026.74 30.4713 1026.74 29.0875V8.2175C1026.74 6.83374 1026.19 5.50664 1025.21 4.52817C1024.23 3.5497 1022.91 3 1021.52 3H990.218Z" fill="#571EAE" fill-opacity="0.3"/>
<path d="M1005.87 13.4168C1010.21 8.95321 1021.07 16.7638 1005.87 26.8049C990.675 16.7612 1001.53 8.95321 1005.87 13.4168Z" fill="#571EAE" fill-opacity="0.3"/>
</svg>
