<svg width="22" height="19" viewBox="0 0 22 19" fill="none" xmlns="http://www.w3.org/2000/svg">
<path fill-rule="evenodd" clip-rule="evenodd" d="M14.2296 1.22797C13.248 0.760354 12.1517 0.5 11.0001 0.5C7.16959 0.5 3.95167 3.38018 3.52867 7.18722L3.2349 9.83114C3.19834 10.1602 3.18285 10.298 3.16251 10.4319C3.03971 11.2408 2.77605 12.0219 2.38351 12.7397C2.31851 12.8586 2.24733 12.9776 2.07701 13.2615L1.40263 14.3854L1.36769 14.4436C1.02149 15.0205 0.708798 15.5415 0.522298 15.9808C0.328302 16.4378 0.156683 17.0619 0.464131 17.7007C0.50266 17.7808 0.546481 17.8582 0.595302 17.9324C0.984868 18.5247 1.6084 18.6986 2.10003 18.7674C2.57267 18.8335 3.18032 18.8334 3.85307 18.8333L3.921 18.8333H18.0791L18.1471 18.8333C18.8198 18.8334 19.4275 18.8335 19.9001 18.7674C20.3917 18.6986 21.0153 18.5247 21.4048 17.9324C21.4537 17.8582 21.4975 17.7808 21.536 17.7007C21.8435 17.0619 21.6718 16.4378 21.4778 15.9808C21.2913 15.5415 20.9786 15.0205 20.6325 14.4437L20.5975 14.3854L19.9231 13.2615C19.7528 12.9776 19.6816 12.8586 19.6166 12.7397C19.2241 12.0219 18.9604 11.2408 18.8376 10.4319C18.8301 10.3821 18.8232 10.3318 18.8156 10.2714C18.5497 10.3122 18.2774 10.3333 18.0001 10.3333C17.5851 10.3333 17.1812 10.2859 16.7935 10.1963C16.8192 10.426 16.8371 10.5794 16.8603 10.7321C17.0182 11.7721 17.3572 12.7764 17.8619 13.6993C17.9483 13.8574 18.0411 14.012 18.1966 14.2712L18.1967 14.2714L18.2081 14.2904L18.8825 15.4144C19.275 16.0686 19.5118 16.4679 19.6369 16.7624L19.6457 16.7834L19.6231 16.7867C19.3062 16.831 18.842 16.8333 18.0791 16.8333H3.921C3.15814 16.8333 2.69389 16.831 2.377 16.7867L2.35447 16.7834L2.36326 16.7624C2.4883 16.4679 2.72513 16.0686 3.11762 15.4144L3.79199 14.2904L3.8035 14.2713C3.95901 14.0121 4.05181 13.8574 4.13828 13.6993C4.64298 12.7764 4.98196 11.7721 5.13985 10.7321C5.16691 10.5539 5.18682 10.3746 5.2202 10.0742L5.22266 10.052L5.51643 7.40809C5.8269 4.61391 8.18869 2.5 11.0001 2.5C11.7378 2.5 12.4446 2.64557 13.0915 2.91079C13.3613 2.27766 13.75 1.70737 14.2296 1.22797ZM16.6708 3.08206C16.064 3.5034 15.6667 4.2053 15.6667 5C15.6667 5.02492 15.6671 5.04976 15.6679 5.07449C15.9691 5.55165 16.1997 6.07943 16.3443 6.64405C16.767 7.06975 17.3528 7.33333 18.0001 7.33333C18.1653 7.33333 18.3266 7.31615 18.4822 7.28347L18.4715 7.18722C18.2968 5.61486 17.6453 4.20059 16.6708 3.08206ZM19.7042 16.9646C19.7041 16.9645 19.7038 16.9628 19.7037 16.9596C19.7042 16.963 19.7043 16.9646 19.7042 16.9646ZM19.8311 16.7404C19.831 16.7403 19.8294 16.741 19.8265 16.7425C19.828 16.7419 19.8291 16.7414 19.8299 16.741C19.8308 16.7406 19.8312 16.7404 19.8311 16.7404ZM2.169 16.7404C2.1691 16.7403 2.17075 16.741 2.17365 16.7425C2.17036 16.7412 2.16891 16.7404 2.169 16.7404ZM2.29649 16.9595C2.29631 16.9627 2.29604 16.9645 2.29595 16.9646C2.29586 16.9646 2.29595 16.963 2.29649 16.9595Z" fill="white"/>
</svg>
