<svg width="30" height="30" viewBox="0 0 30 30" fill="none" xmlns="http://www.w3.org/2000/svg">
<mask id="mask0_198_4686" style="mask-type:alpha" maskUnits="userSpaceOnUse" x="3" y="3" width="24" height="24">
<path d="M3.75024 11.75C3.75024 7.97876 3.75024 6.09315 4.92182 4.92157C6.09339 3.75 7.97901 3.75 11.7502 3.75H18.2502C22.0215 3.75 23.9071 3.75 25.0787 4.92157C26.2502 6.09315 26.2502 7.97876 26.2502 11.75V18.25C26.2502 22.0212 26.2502 23.9069 25.0787 25.0784C23.9071 26.25 22.0215 26.25 18.2502 26.25H11.7502C7.97901 26.25 6.09339 26.25 4.92182 25.0784C3.75024 23.9069 3.75024 22.0212 3.75024 18.25V11.75Z" fill="#273B4A"/>
</mask>
<g mask="url(#mask0_198_4686)">
<path d="M7.07256 15.4277L6.26959 16.2306C5.0289 17.4713 4.40855 18.0917 4.10386 18.8857C3.79918 19.6797 3.84529 20.5558 3.93751 22.308L4.37524 30.625H26.2502V24.1879C26.2502 22.4333 26.2502 21.556 25.9042 20.7791C25.5582 20.0022 24.9061 19.4153 23.602 18.2415L22.8211 17.5387C21.4855 16.3367 20.8177 15.7357 20.0201 15.7566C19.2226 15.7776 18.5873 16.4129 17.3168 17.6835L17.0891 17.9112L17.0891 17.9112C16.1427 18.8576 15.6695 19.3308 15.1484 19.2304C14.6274 19.1301 14.3638 18.515 13.8366 17.2848L13.5776 16.6804L13.5776 16.6804C12.5231 14.22 11.9959 12.9898 10.9538 12.7891C9.91178 12.5885 8.96538 13.5349 7.07256 15.4277Z" fill="#7E869E" fill-opacity="0.25" stroke="white"/>
</g>
<path d="M3.75024 11.75C3.75024 7.97876 3.75024 6.09315 4.92182 4.92157C6.09339 3.75 7.97901 3.75 11.7502 3.75H18.2502C22.0215 3.75 23.9071 3.75 25.0787 4.92157C26.2502 6.09315 26.2502 7.97876 26.2502 11.75V18.25C26.2502 22.0212 26.2502 23.9069 25.0787 25.0784C23.9071 26.25 22.0215 26.25 18.2502 26.25H11.7502C7.97901 26.25 6.09339 26.25 4.92182 25.0784C3.75024 23.9069 3.75024 22.0212 3.75024 18.25V11.75Z" stroke="white" stroke-width="1.2"/>
<circle cx="20.6252" cy="9.37494" r="1.875" fill="white"/>
</svg>
