<svg width="30" height="30" viewBox="0 0 30 30" fill="none" xmlns="http://www.w3.org/2000/svg">
<path d="M3.75 11.7499C3.75 7.97864 3.75 6.09302 4.92157 4.92145C6.09315 3.74988 7.97876 3.74988 11.75 3.74988H18.25C22.0212 3.74988 23.9069 3.74988 25.0784 4.92145C26.25 6.09302 26.25 7.97864 26.25 11.7499V18.2499C26.25 22.0211 26.25 23.9067 25.0784 25.0783C23.9069 26.2499 22.0212 26.2499 18.25 26.2499H11.75C7.97876 26.2499 6.09315 26.2499 4.92157 25.0783C3.75 23.9067 3.75 22.0211 3.75 18.2499V11.7499Z" stroke="white" stroke-width="1.2"/>
<path d="M14.5536 12.4998H15.8929V18.1816H14.5536V12.4998ZM12.3214 12.4998H9.64286C9.10714 12.4998 8.75 12.9733 8.75 13.4468V17.2347C8.75 17.7082 9.10714 18.1816 9.64286 18.1816H12.3214C12.8571 18.1816 13.2143 17.7082 13.2143 17.2347V15.3407H11.875V16.7612H10.0893V13.9203H13.2143V13.4468C13.2143 12.9733 12.8571 12.4998 12.3214 12.4998ZM21.25 13.9203V12.4998H17.2321V18.1816H18.5714V16.2877H20.3571V14.8672H18.5714V13.9203H21.25Z" fill="white"/>
</svg>
